# Generated from hearthvale_lamp_post.vox
# source_sha256 82fd32d1052356369b4c7499678447e22a56969f7d3707071cbb6da75b00de7c
mtllib hearthvale_lamp_post.mtl
o hearthvale_magicavoxel_asset
g palette_9
usemtl palette_9
v -0.187500 0.000000 0.187500
v -0.187500 0.125000 0.187500
v -0.187500 0.125000 -0.187500
v -0.187500 0.000000 -0.187500
vn -1 0 0
f 1//1 2//1 3//1 4//1
v -0.187500 2.875000 0.187500
v -0.187500 3.437500 0.187500
v -0.187500 3.437500 -0.187500
v -0.187500 2.875000 -0.187500
vn -1 0 0
f 5//2 6//2 7//2 8//2
v -0.125000 0.125000 0.125000
v -0.125000 0.250000 0.125000
v -0.125000 0.250000 -0.125000
v -0.125000 0.125000 -0.125000
vn -1 0 0
f 9//3 10//3 11//3 12//3
v -0.125000 0.750000 0.125000
v -0.125000 0.875000 0.125000
v -0.125000 0.875000 -0.125000
v -0.125000 0.750000 -0.125000
vn -1 0 0
f 13//4 14//4 15//4 16//4
v -0.125000 1.875000 0.125000
v -0.125000 2.000000 0.125000
v -0.125000 2.000000 -0.125000
v -0.125000 1.875000 -0.125000
vn -1 0 0
f 17//5 18//5 19//5 20//5
v -0.125000 3.437500 0.062500
v -0.125000 3.500000 0.062500
v -0.125000 3.500000 -0.125000
v -0.125000 3.437500 -0.125000
vn -1 0 0
f 21//6 22//6 23//6 24//6
v -0.187500 0.000000 -0.187500
v 0.187500 0.000000 -0.187500
v 0.187500 0.000000 0.187500
v -0.187500 0.000000 0.187500
vn 0 -1 0
f 25//7 26//7 27//7 28//7
v -0.125000 0.750000 -0.125000
v -0.062500 0.750000 -0.125000
v -0.062500 0.750000 0.125000
v -0.125000 0.750000 0.125000
vn 0 -1 0
f 29//8 30//8 31//8 32//8
v -0.062500 0.750000 -0.125000
v 0.125000 0.750000 -0.125000
v 0.125000 0.750000 -0.062500
v -0.062500 0.750000 -0.062500
vn 0 -1 0
f 33//9 34//9 35//9 36//9
v 0.062500 0.750000 -0.062500
v 0.125000 0.750000 -0.062500
v 0.125000 0.750000 0.125000
v 0.062500 0.750000 0.125000
vn 0 -1 0
f 37//10 38//10 39//10 40//10
v -0.062500 0.750000 0.062500
v 0.062500 0.750000 0.062500
v 0.062500 0.750000 0.125000
v -0.062500 0.750000 0.125000
vn 0 -1 0
f 41//11 42//11 43//11 44//11
v -0.125000 1.875000 -0.125000
v -0.062500 1.875000 -0.125000
v -0.062500 1.875000 0.125000
v -0.125000 1.875000 0.125000
vn 0 -1 0
f 45//12 46//12 47//12 48//12
v -0.062500 1.875000 -0.125000
v 0.125000 1.875000 -0.125000
v 0.125000 1.875000 -0.062500
v -0.062500 1.875000 -0.062500
vn 0 -1 0
f 49//13 50//13 51//13 52//13
v 0.062500 1.875000 -0.062500
v 0.125000 1.875000 -0.062500
v 0.125000 1.875000 0.125000
v 0.062500 1.875000 0.125000
vn 0 -1 0
f 53//14 54//14 55//14 56//14
v -0.062500 1.875000 0.062500
v 0.062500 1.875000 0.062500
v 0.062500 1.875000 0.125000
v -0.062500 1.875000 0.125000
vn 0 -1 0
f 57//15 58//15 59//15 60//15
v -0.187500 2.875000 -0.187500
v -0.062500 2.875000 -0.187500
v -0.062500 2.875000 0.187500
v -0.187500 2.875000 0.187500
vn 0 -1 0
f 61//16 62//16 63//16 64//16
v -0.062500 2.875000 -0.187500
v 0.187500 2.875000 -0.187500
v 0.187500 2.875000 -0.062500
v -0.062500 2.875000 -0.062500
vn 0 -1 0
f 65//17 66//17 67//17 68//17
v 0.062500 2.875000 -0.062500
v 0.187500 2.875000 -0.062500
v 0.187500 2.875000 0.187500
v 0.062500 2.875000 0.187500
vn 0 -1 0
f 69//18 70//18 71//18 72//18
v -0.062500 2.875000 0.062500
v 0.062500 2.875000 0.062500
v 0.062500 2.875000 0.187500
v -0.062500 2.875000 0.187500
vn 0 -1 0
f 73//19 74//19 75//19 76//19
v -0.187500 0.000000 -0.187500
v -0.187500 0.125000 -0.187500
v 0.187500 0.125000 -0.187500
v 0.187500 0.000000 -0.187500
vn 0 0 -1
f 77//20 78//20 79//20 80//20
v -0.187500 2.875000 -0.187500
v -0.187500 3.437500 -0.187500
v 0.187500 3.437500 -0.187500
v 0.187500 2.875000 -0.187500
vn 0 0 -1
f 81//21 82//21 83//21 84//21
v -0.125000 0.125000 -0.125000
v -0.125000 0.250000 -0.125000
v 0.125000 0.250000 -0.125000
v 0.125000 0.125000 -0.125000
vn 0 0 -1
f 85//22 86//22 87//22 88//22
v -0.125000 0.750000 -0.125000
v -0.125000 0.875000 -0.125000
v 0.125000 0.875000 -0.125000
v 0.125000 0.750000 -0.125000
vn 0 0 -1
f 89//23 90//23 91//23 92//23
v -0.125000 1.875000 -0.125000
v -0.125000 2.000000 -0.125000
v 0.125000 2.000000 -0.125000
v 0.125000 1.875000 -0.125000
vn 0 0 -1
f 93//24 94//24 95//24 96//24
v -0.125000 3.437500 -0.125000
v -0.125000 3.500000 -0.125000
v 0.062500 3.500000 -0.125000
v 0.062500 3.437500 -0.125000
vn 0 0 -1
f 97//25 98//25 99//25 100//25
v 0.062500 3.437500 0.062500
v 0.062500 3.500000 0.062500
v -0.125000 3.500000 0.062500
v -0.125000 3.437500 0.062500
vn 0 0 1
f 101//26 102//26 103//26 104//26
v 0.125000 0.125000 0.125000
v 0.125000 0.250000 0.125000
v -0.125000 0.250000 0.125000
v -0.125000 0.125000 0.125000
vn 0 0 1
f 105//27 106//27 107//27 108//27
v 0.125000 0.750000 0.125000
v 0.125000 0.875000 0.125000
v -0.125000 0.875000 0.125000
v -0.125000 0.750000 0.125000
vn 0 0 1
f 109//28 110//28 111//28 112//28
v 0.125000 1.875000 0.125000
v 0.125000 2.000000 0.125000
v -0.125000 2.000000 0.125000
v -0.125000 1.875000 0.125000
vn 0 0 1
f 113//29 114//29 115//29 116//29
v 0.187500 0.000000 0.187500
v 0.187500 0.125000 0.187500
v -0.187500 0.125000 0.187500
v -0.187500 0.000000 0.187500
vn 0 0 1
f 117//30 118//30 119//30 120//30
v 0.187500 2.875000 0.187500
v 0.187500 3.437500 0.187500
v -0.187500 3.437500 0.187500
v -0.187500 2.875000 0.187500
vn 0 0 1
f 121//31 122//31 123//31 124//31
v -0.187500 0.125000 0.187500
v -0.125000 0.125000 0.187500
v -0.125000 0.125000 -0.187500
v -0.187500 0.125000 -0.187500
vn 0 1 0
f 125//32 126//32 127//32 128//32
v -0.125000 0.125000 -0.125000
v 0.187500 0.125000 -0.125000
v 0.187500 0.125000 -0.187500
v -0.125000 0.125000 -0.187500
vn 0 1 0
f 129//33 130//33 131//33 132//33
v 0.125000 0.125000 0.187500
v 0.187500 0.125000 0.187500
v 0.187500 0.125000 -0.125000
v 0.125000 0.125000 -0.125000
vn 0 1 0
f 133//34 134//34 135//34 136//34
v -0.125000 0.125000 0.187500
v 0.125000 0.125000 0.187500
v 0.125000 0.125000 0.125000
v -0.125000 0.125000 0.125000
vn 0 1 0
f 137//35 138//35 139//35 140//35
v -0.125000 0.250000 0.125000
v -0.062500 0.250000 0.125000
v -0.062500 0.250000 -0.125000
v -0.125000 0.250000 -0.125000
vn 0 1 0
f 141//36 142//36 143//36 144//36
v -0.062500 0.250000 -0.062500
v 0.125000 0.250000 -0.062500
v 0.125000 0.250000 -0.125000
v -0.062500 0.250000 -0.125000
vn 0 1 0
f 145//37 146//37 147//37 148//37
v 0.062500 0.250000 0.125000
v 0.125000 0.250000 0.125000
v 0.125000 0.250000 -0.062500
v 0.062500 0.250000 -0.062500
vn 0 1 0
f 149//38 150//38 151//38 152//38
v -0.062500 0.250000 0.125000
v 0.062500 0.250000 0.125000
v 0.062500 0.250000 0.062500
v -0.062500 0.250000 0.062500
vn 0 1 0
f 153//39 154//39 155//39 156//39
v -0.125000 0.875000 0.125000
v -0.062500 0.875000 0.125000
v -0.062500 0.875000 -0.125000
v -0.125000 0.875000 -0.125000
vn 0 1 0
f 157//40 158//40 159//40 160//40
v -0.062500 0.875000 -0.062500
v 0.125000 0.875000 -0.062500
v 0.125000 0.875000 -0.125000
v -0.062500 0.875000 -0.125000
vn 0 1 0
f 161//41 162//41 163//41 164//41
v 0.062500 0.875000 0.125000
v 0.125000 0.875000 0.125000
v 0.125000 0.875000 -0.062500
v 0.062500 0.875000 -0.062500
vn 0 1 0
f 165//42 166//42 167//42 168//42
v -0.062500 0.875000 0.125000
v 0.062500 0.875000 0.125000
v 0.062500 0.875000 0.062500
v -0.062500 0.875000 0.062500
vn 0 1 0
f 169//43 170//43 171//43 172//43
v -0.125000 2.000000 0.125000
v -0.062500 2.000000 0.125000
v -0.062500 2.000000 -0.125000
v -0.125000 2.000000 -0.125000
vn 0 1 0
f 173//44 174//44 175//44 176//44
v -0.062500 2.000000 -0.062500
v 0.125000 2.000000 -0.062500
v 0.125000 2.000000 -0.125000
v -0.062500 2.000000 -0.125000
vn 0 1 0
f 177//45 178//45 179//45 180//45
v 0.062500 2.000000 0.125000
v 0.125000 2.000000 0.125000
v 0.125000 2.000000 -0.062500
v 0.062500 2.000000 -0.062500
vn 0 1 0
f 181//46 182//46 183//46 184//46
v -0.062500 2.000000 0.125000
v 0.062500 2.000000 0.125000
v 0.062500 2.000000 0.062500
v -0.062500 2.000000 0.062500
vn 0 1 0
f 185//47 186//47 187//47 188//47
v -0.187500 3.437500 0.187500
v -0.125000 3.437500 0.187500
v -0.125000 3.437500 -0.187500
v -0.187500 3.437500 -0.187500
vn 0 1 0
f 189//48 190//48 191//48 192//48
v -0.125000 3.437500 -0.125000
v 0.187500 3.437500 -0.125000
v 0.187500 3.437500 -0.187500
v -0.125000 3.437500 -0.187500
vn 0 1 0
f 193//49 194//49 195//49 196//49
v 0.062500 3.437500 0.187500
v 0.187500 3.437500 0.187500
v 0.187500 3.437500 -0.125000
v 0.062500 3.437500 -0.125000
vn 0 1 0
f 197//50 198//50 199//50 200//50
v -0.125000 3.437500 0.187500
v 0.062500 3.437500 0.187500
v 0.062500 3.437500 0.062500
v -0.125000 3.437500 0.062500
vn 0 1 0
f 201//51 202//51 203//51 204//51
v -0.125000 3.500000 0.062500
v 0.062500 3.500000 0.062500
v 0.062500 3.500000 -0.125000
v -0.125000 3.500000 -0.125000
vn 0 1 0
f 205//52 206//52 207//52 208//52
v 0.062500 3.437500 -0.125000
v 0.062500 3.500000 -0.125000
v 0.062500 3.500000 0.062500
v 0.062500 3.437500 0.062500
vn 1 0 0
f 209//53 210//53 211//53 212//53
v 0.125000 0.125000 -0.125000
v 0.125000 0.250000 -0.125000
v 0.125000 0.250000 0.125000
v 0.125000 0.125000 0.125000
vn 1 0 0
f 213//54 214//54 215//54 216//54
v 0.125000 0.750000 -0.125000
v 0.125000 0.875000 -0.125000
v 0.125000 0.875000 0.125000
v 0.125000 0.750000 0.125000
vn 1 0 0
f 217//55 218//55 219//55 220//55
v 0.125000 1.875000 -0.125000
v 0.125000 2.000000 -0.125000
v 0.125000 2.000000 0.125000
v 0.125000 1.875000 0.125000
vn 1 0 0
f 221//56 222//56 223//56 224//56
v 0.187500 0.000000 -0.187500
v 0.187500 0.125000 -0.187500
v 0.187500 0.125000 0.187500
v 0.187500 0.000000 0.187500
vn 1 0 0
f 225//57 226//57 227//57 228//57
v 0.187500 2.875000 -0.187500
v 0.187500 3.437500 -0.187500
v 0.187500 3.437500 0.187500
v 0.187500 2.875000 0.187500
vn 1 0 0
f 229//58 230//58 231//58 232//58
g palette_15
usemtl palette_15
v -0.062500 0.250000 0.062500
v -0.062500 0.750000 0.062500
v -0.062500 0.750000 -0.062500
v -0.062500 0.250000 -0.062500
vn -1 0 0
f 233//59 234//59 235//59 236//59
v -0.062500 0.875000 0.062500
v -0.062500 1.875000 0.062500
v -0.062500 1.875000 -0.062500
v -0.062500 0.875000 -0.062500
vn -1 0 0
f 237//60 238//60 239//60 240//60
v -0.062500 2.000000 0.062500
v -0.062500 2.875000 0.062500
v -0.062500 2.875000 -0.062500
v -0.062500 2.000000 -0.062500
vn -1 0 0
f 241//61 242//61 243//61 244//61
v -0.062500 0.250000 -0.062500
v -0.062500 0.750000 -0.062500
v 0.062500 0.750000 -0.062500
v 0.062500 0.250000 -0.062500
vn 0 0 -1
f 245//62 246//62 247//62 248//62
v -0.062500 0.875000 -0.062500
v -0.062500 1.875000 -0.062500
v 0.062500 1.875000 -0.062500
v 0.062500 0.875000 -0.062500
vn 0 0 -1
f 249//63 250//63 251//63 252//63
v -0.062500 2.000000 -0.062500
v -0.062500 2.875000 -0.062500
v 0.062500 2.875000 -0.062500
v 0.062500 2.000000 -0.062500
vn 0 0 -1
f 253//64 254//64 255//64 256//64
v 0.062500 0.250000 0.062500
v 0.062500 0.750000 0.062500
v -0.062500 0.750000 0.062500
v -0.062500 0.250000 0.062500
vn 0 0 1
f 257//65 258//65 259//65 260//65
v 0.062500 0.875000 0.062500
v 0.062500 1.875000 0.062500
v -0.062500 1.875000 0.062500
v -0.062500 0.875000 0.062500
vn 0 0 1
f 261//66 262//66 263//66 264//66
v 0.062500 2.000000 0.062500
v 0.062500 2.875000 0.062500
v -0.062500 2.875000 0.062500
v -0.062500 2.000000 0.062500
vn 0 0 1
f 265//67 266//67 267//67 268//67
v 0.062500 0.250000 -0.062500
v 0.062500 0.750000 -0.062500
v 0.062500 0.750000 0.062500
v 0.062500 0.250000 0.062500
vn 1 0 0
f 269//68 270//68 271//68 272//68
v 0.062500 0.875000 -0.062500
v 0.062500 1.875000 -0.062500
v 0.062500 1.875000 0.062500
v 0.062500 0.875000 0.062500
vn 1 0 0
f 273//69 274//69 275//69 276//69
v 0.062500 2.000000 -0.062500
v 0.062500 2.875000 -0.062500
v 0.062500 2.875000 0.062500
v 0.062500 2.000000 0.062500
vn 1 0 0
f 277//70 278//70 279//70 280//70
