# Generated from hearthvale_prop_hedge.vox
# source_sha256 b67f30af29a68d57a0f7bb44abdea0ce06cefdc03e40ad8d018844b533204d3e
mtllib hearthvale_prop_hedge.mtl
o hearthvale_magicavoxel_asset
g palette_11
usemtl palette_11
v -0.250000 0.000000 0.093750
v -0.250000 0.187500 0.093750
v -0.250000 0.187500 -0.031250
v -0.250000 0.000000 -0.031250
vn -1 0 0
f 1//1 2//1 3//1 4//1
v -0.187500 0.000000 -0.093750
v -0.125000 0.000000 -0.093750
v -0.125000 0.000000 0.093750
v -0.187500 0.000000 0.093750
vn 0 -1 0
f 5//2 6//2 7//2 8//2
v -0.125000 0.000000 -0.093750
v -0.062500 0.000000 -0.093750
v -0.062500 0.000000 0.031250
v -0.125000 0.000000 0.031250
vn 0 -1 0
f 9//3 10//3 11//3 12//3
v -0.062500 0.000000 -0.093750
v 0.000000 0.000000 -0.093750
v 0.000000 0.000000 -0.031250
v -0.062500 0.000000 -0.031250
vn 0 -1 0
f 13//4 14//4 15//4 16//4
v 0.062500 0.000000 -0.093750
v 0.125000 0.000000 -0.093750
v 0.125000 0.000000 0.093750
v 0.062500 0.000000 0.093750
vn 0 -1 0
f 17//5 18//5 19//5 20//5
v 0.125000 0.000000 -0.093750
v 0.187500 0.000000 -0.093750
v 0.187500 0.000000 0.031250
v 0.125000 0.000000 0.031250
vn 0 -1 0
f 21//6 22//6 23//6 24//6
v 0.187500 0.000000 -0.093750
v 0.250000 0.000000 -0.093750
v 0.250000 0.000000 -0.031250
v 0.187500 0.000000 -0.031250
vn 0 -1 0
f 25//7 26//7 27//7 28//7
v -0.250000 0.000000 -0.031250
v -0.187500 0.000000 -0.031250
v -0.187500 0.000000 0.093750
v -0.250000 0.000000 0.093750
vn 0 -1 0
f 29//8 30//8 31//8 32//8
v 0.000000 0.000000 -0.031250
v 0.062500 0.000000 -0.031250
v 0.062500 0.000000 0.093750
v 0.000000 0.000000 0.093750
vn 0 -1 0
f 33//9 34//9 35//9 36//9
v -0.062500 0.000000 0.031250
v 0.000000 0.000000 0.031250
v 0.000000 0.000000 0.093750
v -0.062500 0.000000 0.093750
vn 0 -1 0
f 37//10 38//10 39//10 40//10
v 0.187500 0.000000 0.031250
v 0.250000 0.000000 0.031250
v 0.250000 0.000000 0.093750
v 0.187500 0.000000 0.093750
vn 0 -1 0
f 41//11 42//11 43//11 44//11
v -0.187500 0.000000 -0.093750
v -0.187500 0.187500 -0.093750
v 0.000000 0.187500 -0.093750
v 0.000000 0.000000 -0.093750
vn 0 0 -1
f 45//12 46//12 47//12 48//12
v 0.062500 0.000000 -0.093750
v 0.062500 0.187500 -0.093750
v 0.250000 0.187500 -0.093750
v 0.250000 0.000000 -0.093750
vn 0 0 -1
f 49//13 50//13 51//13 52//13
v -0.125000 0.000000 0.093750
v -0.125000 0.187500 0.093750
v -0.250000 0.187500 0.093750
v -0.250000 0.000000 0.093750
vn 0 0 1
f 53//14 54//14 55//14 56//14
v 0.125000 0.000000 0.093750
v 0.125000 0.187500 0.093750
v -0.062500 0.187500 0.093750
v -0.062500 0.000000 0.093750
vn 0 0 1
f 57//15 58//15 59//15 60//15
v 0.250000 0.000000 0.093750
v 0.250000 0.187500 0.093750
v 0.187500 0.187500 0.093750
v 0.187500 0.000000 0.093750
vn 0 0 1
f 61//16 62//16 63//16 64//16
v 0.187500 0.187500 -0.031250
v 0.250000 0.187500 -0.031250
v 0.250000 0.187500 -0.093750
v 0.187500 0.187500 -0.093750
vn 0 1 0
f 65//17 66//17 67//17 68//17
v -0.250000 0.187500 0.093750
v -0.187500 0.187500 0.093750
v -0.187500 0.187500 -0.031250
v -0.250000 0.187500 -0.031250
vn 0 1 0
f 69//18 70//18 71//18 72//18
v 0.187500 0.187500 0.093750
v 0.250000 0.187500 0.093750
v 0.250000 0.187500 0.031250
v 0.187500 0.187500 0.031250
vn 0 1 0
f 73//19 74//19 75//19 76//19
v 0.250000 0.000000 -0.093750
v 0.250000 0.187500 -0.093750
v 0.250000 0.187500 -0.031250
v 0.250000 0.000000 -0.031250
vn 1 0 0
f 77//20 78//20 79//20 80//20
v 0.250000 0.000000 0.031250
v 0.250000 0.187500 0.031250
v 0.250000 0.187500 0.093750
v 0.250000 0.000000 0.093750
vn 1 0 0
f 81//21 82//21 83//21 84//21
g palette_12
usemtl palette_12
v -0.250000 0.000000 -0.031250
v -0.250000 0.187500 -0.031250
v -0.250000 0.187500 -0.093750
v -0.250000 0.000000 -0.093750
vn -1 0 0
f 85//22 86//22 87//22 88//22
v -0.187500 0.187500 0.093750
v -0.187500 0.250000 0.093750
v -0.187500 0.250000 -0.093750
v -0.187500 0.187500 -0.093750
vn -1 0 0
f 89//23 90//23 91//23 92//23
v -0.250000 0.000000 -0.093750
v -0.187500 0.000000 -0.093750
v -0.187500 0.000000 -0.031250
v -0.250000 0.000000 -0.031250
vn 0 -1 0
f 93//24 94//24 95//24 96//24
v 0.000000 0.000000 -0.093750
v 0.062500 0.000000 -0.093750
v 0.062500 0.000000 -0.031250
v 0.000000 0.000000 -0.031250
vn 0 -1 0
f 97//25 98//25 99//25 100//25
v -0.062500 0.000000 -0.031250
v 0.000000 0.000000 -0.031250
v 0.000000 0.000000 0.031250
v -0.062500 0.000000 0.031250
vn 0 -1 0
f 101//26 102//26 103//26 104//26
v 0.187500 0.000000 -0.031250
v 0.250000 0.000000 -0.031250
v 0.250000 0.000000 0.031250
v 0.187500 0.000000 0.031250
vn 0 -1 0
f 105//27 106//27 107//27 108//27
v -0.125000 0.000000 0.031250
v -0.062500 0.000000 0.031250
v -0.062500 0.000000 0.093750
v -0.125000 0.000000 0.093750
vn 0 -1 0
f 109//28 110//28 111//28 112//28
v 0.125000 0.000000 0.031250
v 0.187500 0.000000 0.031250
v 0.187500 0.000000 0.093750
v 0.125000 0.000000 0.093750
vn 0 -1 0
f 113//29 114//29 115//29 116//29
v -0.250000 0.000000 -0.093750
v -0.250000 0.187500 -0.093750
v -0.187500 0.187500 -0.093750
v -0.187500 0.000000 -0.093750
vn 0 0 -1
f 117//30 118//30 119//30 120//30
v -0.187500 0.187500 -0.093750
v -0.187500 0.250000 -0.093750
v 0.187500 0.250000 -0.093750
v 0.187500 0.187500 -0.093750
vn 0 0 -1
f 121//31 122//31 123//31 124//31
v 0.000000 0.000000 -0.093750
v 0.000000 0.187500 -0.093750
v 0.062500 0.187500 -0.093750
v 0.062500 0.000000 -0.093750
vn 0 0 -1
f 125//32 126//32 127//32 128//32
v 0.187500 0.187500 0.093750
v 0.187500 0.250000 0.093750
v -0.187500 0.250000 0.093750
v -0.187500 0.187500 0.093750
vn 0 0 1
f 129//33 130//33 131//33 132//33
v -0.062500 0.000000 0.093750
v -0.062500 0.187500 0.093750
v -0.125000 0.187500 0.093750
v -0.125000 0.000000 0.093750
vn 0 0 1
f 133//34 134//34 135//34 136//34
v 0.187500 0.000000 0.093750
v 0.187500 0.187500 0.093750
v 0.125000 0.187500 0.093750
v 0.125000 0.000000 0.093750
vn 0 0 1
f 137//35 138//35 139//35 140//35
v -0.250000 0.187500 -0.031250
v -0.187500 0.187500 -0.031250
v -0.187500 0.187500 -0.093750
v -0.250000 0.187500 -0.093750
vn 0 1 0
f 141//36 142//36 143//36 144//36
v 0.187500 0.187500 0.031250
v 0.250000 0.187500 0.031250
v 0.250000 0.187500 -0.031250
v 0.187500 0.187500 -0.031250
vn 0 1 0
f 145//37 146//37 147//37 148//37
v -0.187500 0.250000 0.093750
v 0.187500 0.250000 0.093750
v 0.187500 0.250000 -0.093750
v -0.187500 0.250000 -0.093750
vn 0 1 0
f 149//38 150//38 151//38 152//38
v 0.187500 0.187500 -0.093750
v 0.187500 0.250000 -0.093750
v 0.187500 0.250000 0.093750
v 0.187500 0.187500 0.093750
vn 1 0 0
f 153//39 154//39 155//39 156//39
v 0.250000 0.000000 -0.031250
v 0.250000 0.187500 -0.031250
v 0.250000 0.187500 0.031250
v 0.250000 0.000000 0.031250
vn 1 0 0
f 157//40 158//40 159//40 160//40
