# Generated from hearthvale_garden_kitchen_56x40.vox
# source_sha256 2022b67de07474a045a6057302b4020fa8fb4dd6300c4459b47cc59c7f5d95a0
mtllib hearthvale_garden_kitchen_56x40.mtl
o hearthvale_magicavoxel_asset
g palette_1
usemtl palette_1
v -1.750000 0.000000 1.250000
v -1.750000 0.125000 1.250000
v -1.750000 0.125000 -1.250000
v -1.750000 0.000000 -1.250000
vn -1 0 0
f 1//1 2//1 3//1 4//1
v 1.687500 0.062500 1.187500
v 1.687500 0.125000 1.187500
v 1.687500 0.125000 -1.187500
v 1.687500 0.062500 -1.187500
vn -1 0 0
f 5//2 6//2 7//2 8//2
v -1.750000 0.000000 -1.250000
v -1.687500 0.000000 -1.250000
v -1.687500 0.000000 1.250000
v -1.750000 0.000000 1.250000
vn 0 -1 0
f 9//3 10//3 11//3 12//3
v -1.687500 0.000000 -1.250000
v 1.750000 0.000000 -1.250000
v 1.750000 0.000000 -1.187500
v -1.687500 0.000000 -1.187500
vn 0 -1 0
f 13//4 14//4 15//4 16//4
v 1.687500 0.000000 -1.187500
v 1.750000 0.000000 -1.187500
v 1.750000 0.000000 1.250000
v 1.687500 0.000000 1.250000
vn 0 -1 0
f 17//5 18//5 19//5 20//5
v -1.687500 0.000000 1.187500
v 1.687500 0.000000 1.187500
v 1.687500 0.000000 1.250000
v -1.687500 0.000000 1.250000
vn 0 -1 0
f 21//6 22//6 23//6 24//6
v -1.750000 0.000000 -1.250000
v -1.750000 0.125000 -1.250000
v 1.750000 0.125000 -1.250000
v 1.750000 0.000000 -1.250000
vn 0 0 -1
f 25//7 26//7 27//7 28//7
v -1.687500 0.062500 1.187500
v -1.687500 0.125000 1.187500
v 1.687500 0.125000 1.187500
v 1.687500 0.062500 1.187500
vn 0 0 -1
f 29//8 30//8 31//8 32//8
v 1.687500 0.062500 -1.187500
v 1.687500 0.125000 -1.187500
v -1.687500 0.125000 -1.187500
v -1.687500 0.062500 -1.187500
vn 0 0 1
f 33//9 34//9 35//9 36//9
v 1.750000 0.000000 1.250000
v 1.750000 0.125000 1.250000
v -1.750000 0.125000 1.250000
v -1.750000 0.000000 1.250000
vn 0 0 1
f 37//10 38//10 39//10 40//10
v -1.750000 0.125000 1.250000
v -1.687500 0.125000 1.250000
v -1.687500 0.125000 -1.250000
v -1.750000 0.125000 -1.250000
vn 0 1 0
f 41//11 42//11 43//11 44//11
v -1.687500 0.125000 -1.187500
v 1.750000 0.125000 -1.187500
v 1.750000 0.125000 -1.250000
v -1.687500 0.125000 -1.250000
vn 0 1 0
f 45//12 46//12 47//12 48//12
v 1.687500 0.125000 1.250000
v 1.750000 0.125000 1.250000
v 1.750000 0.125000 -1.187500
v 1.687500 0.125000 -1.187500
vn 0 1 0
f 49//13 50//13 51//13 52//13
v -1.687500 0.125000 1.250000
v 1.687500 0.125000 1.250000
v 1.687500 0.125000 1.187500
v -1.687500 0.125000 1.187500
vn 0 1 0
f 53//14 54//14 55//14 56//14
v -1.687500 0.062500 -1.187500
v -1.687500 0.125000 -1.187500
v -1.687500 0.125000 1.187500
v -1.687500 0.062500 1.187500
vn 1 0 0
f 57//15 58//15 59//15 60//15
v 1.750000 0.000000 -1.250000
v 1.750000 0.125000 -1.250000
v 1.750000 0.125000 1.250000
v 1.750000 0.000000 1.250000
vn 1 0 0
f 61//16 62//16 63//16 64//16
g palette_2
usemtl palette_2
v -1.500000 0.062500 -0.437500
v -1.500000 0.125000 -0.437500
v -1.500000 0.125000 -0.812500
v -1.500000 0.062500 -0.812500
vn -1 0 0
f 65//17 66//17 67//17 68//17
v -1.500000 0.062500 0.187500
v -1.500000 0.125000 0.187500
v -1.500000 0.125000 -0.187500
v -1.500000 0.062500 -0.187500
vn -1 0 0
f 69//18 70//18 71//18 72//18
v -1.500000 0.062500 0.812500
v -1.500000 0.125000 0.812500
v -1.500000 0.125000 0.437500
v -1.500000 0.062500 0.437500
vn -1 0 0
f 73//19 74//19 75//19 76//19
v -1.687500 0.000000 -1.187500
v 1.687500 0.000000 -1.187500
v 1.687500 0.000000 1.187500
v -1.687500 0.000000 1.187500
vn 0 -1 0
f 77//20 78//20 79//20 80//20
v -1.500000 0.062500 -0.812500
v -1.500000 0.125000 -0.812500
v 1.500000 0.125000 -0.812500
v 1.500000 0.062500 -0.812500
vn 0 0 -1
f 81//21 82//21 83//21 84//21
v -1.500000 0.062500 -0.187500
v -1.500000 0.125000 -0.187500
v 1.500000 0.125000 -0.187500
v 1.500000 0.062500 -0.187500
vn 0 0 -1
f 85//22 86//22 87//22 88//22
v -1.500000 0.062500 0.437500
v -1.500000 0.125000 0.437500
v 1.500000 0.125000 0.437500
v 1.500000 0.062500 0.437500
vn 0 0 -1
f 89//23 90//23 91//23 92//23
v 1.500000 0.062500 -0.437500
v 1.500000 0.125000 -0.437500
v -1.500000 0.125000 -0.437500
v -1.500000 0.062500 -0.437500
vn 0 0 1
f 93//24 94//24 95//24 96//24
v 1.500000 0.062500 0.187500
v 1.500000 0.125000 0.187500
v -1.500000 0.125000 0.187500
v -1.500000 0.062500 0.187500
vn 0 0 1
f 97//25 98//25 99//25 100//25
v 1.500000 0.062500 0.812500
v 1.500000 0.125000 0.812500
v -1.500000 0.125000 0.812500
v -1.500000 0.062500 0.812500
vn 0 0 1
f 101//26 102//26 103//26 104//26
v -1.687500 0.062500 1.187500
v -1.500000 0.062500 1.187500
v -1.500000 0.062500 -1.187500
v -1.687500 0.062500 -1.187500
vn 0 1 0
f 105//27 106//27 107//27 108//27
v -1.500000 0.062500 -0.812500
v 1.687500 0.062500 -0.812500
v 1.687500 0.062500 -1.187500
v -1.500000 0.062500 -1.187500
vn 0 1 0
f 109//28 110//28 111//28 112//28
v 1.500000 0.062500 1.187500
v 1.687500 0.062500 1.187500
v 1.687500 0.062500 -0.812500
v 1.500000 0.062500 -0.812500
vn 0 1 0
f 113//29 114//29 115//29 116//29
v -1.500000 0.062500 -0.187500
v 1.500000 0.062500 -0.187500
v 1.500000 0.062500 -0.437500
v -1.500000 0.062500 -0.437500
vn 0 1 0
f 117//30 118//30 119//30 120//30
v -1.500000 0.062500 0.437500
v 1.500000 0.062500 0.437500
v 1.500000 0.062500 0.187500
v -1.500000 0.062500 0.187500
vn 0 1 0
f 121//31 122//31 123//31 124//31
v -1.500000 0.062500 1.187500
v 1.500000 0.062500 1.187500
v 1.500000 0.062500 0.812500
v -1.500000 0.062500 0.812500
vn 0 1 0
f 125//32 126//32 127//32 128//32
v -1.500000 0.125000 -0.437500
v -1.375000 0.125000 -0.437500
v -1.375000 0.125000 -0.812500
v -1.500000 0.125000 -0.812500
vn 0 1 0
f 129//33 130//33 131//33 132//33
v -1.375000 0.125000 -0.687500
v 1.500000 0.125000 -0.687500
v 1.500000 0.125000 -0.812500
v -1.375000 0.125000 -0.812500
vn 0 1 0
f 133//34 134//34 135//34 136//34
v -1.250000 0.125000 -0.437500
v -1.125000 0.125000 -0.437500
v -1.125000 0.125000 -0.687500
v -1.250000 0.125000 -0.687500
vn 0 1 0
f 137//35 138//35 139//35 140//35
v -1.000000 0.125000 -0.437500
v -0.875000 0.125000 -0.437500
v -0.875000 0.125000 -0.687500
v -1.000000 0.125000 -0.687500
vn 0 1 0
f 141//36 142//36 143//36 144//36
v -0.750000 0.125000 -0.437500
v -0.625000 0.125000 -0.437500
v -0.625000 0.125000 -0.687500
v -0.750000 0.125000 -0.687500
vn 0 1 0
f 145//37 146//37 147//37 148//37
v -0.500000 0.125000 -0.437500
v -0.375000 0.125000 -0.437500
v -0.375000 0.125000 -0.687500
v -0.500000 0.125000 -0.687500
vn 0 1 0
f 149//38 150//38 151//38 152//38
v -0.250000 0.125000 -0.437500
v -0.125000 0.125000 -0.437500
v -0.125000 0.125000 -0.687500
v -0.250000 0.125000 -0.687500
vn 0 1 0
f 153//39 154//39 155//39 156//39
v 0.000000 0.125000 -0.437500
v 0.125000 0.125000 -0.437500
v 0.125000 0.125000 -0.687500
v 0.000000 0.125000 -0.687500
vn 0 1 0
f 157//40 158//40 159//40 160//40
v 0.250000 0.125000 -0.437500
v 0.375000 0.125000 -0.437500
v 0.375000 0.125000 -0.687500
v 0.250000 0.125000 -0.687500
vn 0 1 0
f 161//41 162//41 163//41 164//41
v 0.500000 0.125000 -0.437500
v 0.625000 0.125000 -0.437500
v 0.625000 0.125000 -0.687500
v 0.500000 0.125000 -0.687500
vn 0 1 0
f 165//42 166//42 167//42 168//42
v 0.750000 0.125000 -0.437500
v 0.875000 0.125000 -0.437500
v 0.875000 0.125000 -0.687500
v 0.750000 0.125000 -0.687500
vn 0 1 0
f 169//43 170//43 171//43 172//43
v 1.000000 0.125000 -0.437500
v 1.125000 0.125000 -0.437500
v 1.125000 0.125000 -0.687500
v 1.000000 0.125000 -0.687500
vn 0 1 0
f 173//44 174//44 175//44 176//44
v 1.250000 0.125000 -0.437500
v 1.500000 0.125000 -0.437500
v 1.500000 0.125000 -0.687500
v 1.250000 0.125000 -0.687500
vn 0 1 0
f 177//45 178//45 179//45 180//45
v -1.375000 0.125000 -0.437500
v -1.250000 0.125000 -0.437500
v -1.250000 0.125000 -0.562500
v -1.375000 0.125000 -0.562500
vn 0 1 0
f 181//46 182//46 183//46 184//46
v -1.125000 0.125000 -0.437500
v -1.000000 0.125000 -0.437500
v -1.000000 0.125000 -0.562500
v -1.125000 0.125000 -0.562500
vn 0 1 0
f 185//47 186//47 187//47 188//47
v -0.875000 0.125000 -0.437500
v -0.750000 0.125000 -0.437500
v -0.750000 0.125000 -0.562500
v -0.875000 0.125000 -0.562500
vn 0 1 0
f 189//48 190//48 191//48 192//48
v -0.625000 0.125000 -0.437500
v -0.500000 0.125000 -0.437500
v -0.500000 0.125000 -0.562500
v -0.625000 0.125000 -0.562500
vn 0 1 0
f 193//49 194//49 195//49 196//49
v -0.375000 0.125000 -0.437500
v -0.250000 0.125000 -0.437500
v -0.250000 0.125000 -0.562500
v -0.375000 0.125000 -0.562500
vn 0 1 0
f 197//50 198//50 199//50 200//50
v -0.125000 0.125000 -0.437500
v 0.000000 0.125000 -0.437500
v 0.000000 0.125000 -0.562500
v -0.125000 0.125000 -0.562500
vn 0 1 0
f 201//51 202//51 203//51 204//51
v 0.125000 0.125000 -0.437500
v 0.250000 0.125000 -0.437500
v 0.250000 0.125000 -0.562500
v 0.125000 0.125000 -0.562500
vn 0 1 0
f 205//52 206//52 207//52 208//52
v 0.375000 0.125000 -0.437500
v 0.500000 0.125000 -0.437500
v 0.500000 0.125000 -0.562500
v 0.375000 0.125000 -0.562500
vn 0 1 0
f 209//53 210//53 211//53 212//53
v 0.625000 0.125000 -0.437500
v 0.750000 0.125000 -0.437500
v 0.750000 0.125000 -0.562500
v 0.625000 0.125000 -0.562500
vn 0 1 0
f 213//54 214//54 215//54 216//54
v 0.875000 0.125000 -0.437500
v 1.000000 0.125000 -0.437500
v 1.000000 0.125000 -0.562500
v 0.875000 0.125000 -0.562500
vn 0 1 0
f 217//55 218//55 219//55 220//55
v 1.125000 0.125000 -0.437500
v 1.250000 0.125000 -0.437500
v 1.250000 0.125000 -0.562500
v 1.125000 0.125000 -0.562500
vn 0 1 0
f 221//56 222//56 223//56 224//56
v -1.500000 0.125000 0.187500
v -1.250000 0.125000 0.187500
v -1.250000 0.125000 -0.187500
v -1.500000 0.125000 -0.187500
vn 0 1 0
f 225//57 226//57 227//57 228//57
v -1.250000 0.125000 -0.062500
v 1.500000 0.125000 -0.062500
v 1.500000 0.125000 -0.187500
v -1.250000 0.125000 -0.187500
vn 0 1 0
f 229//58 230//58 231//58 232//58
v -1.125000 0.125000 0.187500
v -1.000000 0.125000 0.187500
v -1.000000 0.125000 -0.062500
v -1.125000 0.125000 -0.062500
vn 0 1 0
f 233//59 234//59 235//59 236//59
v -0.875000 0.125000 0.187500
v -0.750000 0.125000 0.187500
v -0.750000 0.125000 -0.062500
v -0.875000 0.125000 -0.062500
vn 0 1 0
f 237//60 238//60 239//60 240//60
v -0.625000 0.125000 0.187500
v -0.500000 0.125000 0.187500
v -0.500000 0.125000 -0.062500
v -0.625000 0.125000 -0.062500
vn 0 1 0
f 241//61 242//61 243//61 244//61
v -0.375000 0.125000 0.187500
v -0.250000 0.125000 0.187500
v -0.250000 0.125000 -0.062500
v -0.375000 0.125000 -0.062500
vn 0 1 0
f 245//62 246//62 247//62 248//62
v -0.125000 0.125000 0.187500
v 0.000000 0.125000 0.187500
v 0.000000 0.125000 -0.062500
v -0.125000 0.125000 -0.062500
vn 0 1 0
f 249//63 250//63 251//63 252//63
v 0.125000 0.125000 0.187500
v 0.250000 0.125000 0.187500
v 0.250000 0.125000 -0.062500
v 0.125000 0.125000 -0.062500
vn 0 1 0
f 253//64 254//64 255//64 256//64
v 0.375000 0.125000 0.187500
v 0.500000 0.125000 0.187500
v 0.500000 0.125000 -0.062500
v 0.375000 0.125000 -0.062500
vn 0 1 0
f 257//65 258//65 259//65 260//65
v 0.625000 0.125000 0.187500
v 0.750000 0.125000 0.187500
v 0.750000 0.125000 -0.062500
v 0.625000 0.125000 -0.062500
vn 0 1 0
f 261//66 262//66 263//66 264//66
v 0.875000 0.125000 0.187500
v 1.000000 0.125000 0.187500
v 1.000000 0.125000 -0.062500
v 0.875000 0.125000 -0.062500
vn 0 1 0
f 265//67 266//67 267//67 268//67
v 1.125000 0.125000 0.187500
v 1.250000 0.125000 0.187500
v 1.250000 0.125000 -0.062500
v 1.125000 0.125000 -0.062500
vn 0 1 0
f 269//68 270//68 271//68 272//68
v 1.375000 0.125000 0.187500
v 1.500000 0.125000 0.187500
v 1.500000 0.125000 -0.062500
v 1.375000 0.125000 -0.062500
vn 0 1 0
f 273//69 274//69 275//69 276//69
v -1.250000 0.125000 0.187500
v -1.125000 0.125000 0.187500
v -1.125000 0.125000 0.062500
v -1.250000 0.125000 0.062500
vn 0 1 0
f 277//70 278//70 279//70 280//70
v -1.000000 0.125000 0.187500
v -0.875000 0.125000 0.187500
v -0.875000 0.125000 0.062500
v -1.000000 0.125000 0.062500
vn 0 1 0
f 281//71 282//71 283//71 284//71
v -0.750000 0.125000 0.187500
v -0.625000 0.125000 0.187500
v -0.625000 0.125000 0.062500
v -0.750000 0.125000 0.062500
vn 0 1 0
f 285//72 286//72 287//72 288//72
v -0.500000 0.125000 0.187500
v -0.375000 0.125000 0.187500
v -0.375000 0.125000 0.062500
v -0.500000 0.125000 0.062500
vn 0 1 0
f 289//73 290//73 291//73 292//73
v -0.250000 0.125000 0.187500
v -0.125000 0.125000 0.187500
v -0.125000 0.125000 0.062500
v -0.250000 0.125000 0.062500
vn 0 1 0
f 293//74 294//74 295//74 296//74
v 0.000000 0.125000 0.187500
v 0.125000 0.125000 0.187500
v 0.125000 0.125000 0.062500
v 0.000000 0.125000 0.062500
vn 0 1 0
f 297//75 298//75 299//75 300//75
v 0.250000 0.125000 0.187500
v 0.375000 0.125000 0.187500
v 0.375000 0.125000 0.062500
v 0.250000 0.125000 0.062500
vn 0 1 0
f 301//76 302//76 303//76 304//76
v 0.500000 0.125000 0.187500
v 0.625000 0.125000 0.187500
v 0.625000 0.125000 0.062500
v 0.500000 0.125000 0.062500
vn 0 1 0
f 305//77 306//77 307//77 308//77
v 0.750000 0.125000 0.187500
v 0.875000 0.125000 0.187500
v 0.875000 0.125000 0.062500
v 0.750000 0.125000 0.062500
vn 0 1 0
f 309//78 310//78 311//78 312//78
v 1.000000 0.125000 0.187500
v 1.125000 0.125000 0.187500
v 1.125000 0.125000 0.062500
v 1.000000 0.125000 0.062500
vn 0 1 0
f 313//79 314//79 315//79 316//79
v 1.250000 0.125000 0.187500
v 1.375000 0.125000 0.187500
v 1.375000 0.125000 0.062500
v 1.250000 0.125000 0.062500
vn 0 1 0
f 317//80 318//80 319//80 320//80
v -1.500000 0.125000 0.812500
v -1.375000 0.125000 0.812500
v -1.375000 0.125000 0.437500
v -1.500000 0.125000 0.437500
vn 0 1 0
f 321//81 322//81 323//81 324//81
v -1.375000 0.125000 0.562500
v 1.500000 0.125000 0.562500
v 1.500000 0.125000 0.437500
v -1.375000 0.125000 0.437500
vn 0 1 0
f 325//82 326//82 327//82 328//82
v -1.250000 0.125000 0.812500
v -1.125000 0.125000 0.812500
v -1.125000 0.125000 0.562500
v -1.250000 0.125000 0.562500
vn 0 1 0
f 329//83 330//83 331//83 332//83
v -1.000000 0.125000 0.812500
v -0.875000 0.125000 0.812500
v -0.875000 0.125000 0.562500
v -1.000000 0.125000 0.562500
vn 0 1 0
f 333//84 334//84 335//84 336//84
v -0.750000 0.125000 0.812500
v -0.625000 0.125000 0.812500
v -0.625000 0.125000 0.562500
v -0.750000 0.125000 0.562500
vn 0 1 0
f 337//85 338//85 339//85 340//85
v -0.500000 0.125000 0.812500
v -0.375000 0.125000 0.812500
v -0.375000 0.125000 0.562500
v -0.500000 0.125000 0.562500
vn 0 1 0
f 341//86 342//86 343//86 344//86
v -0.250000 0.125000 0.812500
v -0.125000 0.125000 0.812500
v -0.125000 0.125000 0.562500
v -0.250000 0.125000 0.562500
vn 0 1 0
f 345//87 346//87 347//87 348//87
v 0.000000 0.125000 0.812500
v 0.125000 0.125000 0.812500
v 0.125000 0.125000 0.562500
v 0.000000 0.125000 0.562500
vn 0 1 0
f 349//88 350//88 351//88 352//88
v 0.250000 0.125000 0.812500
v 0.375000 0.125000 0.812500
v 0.375000 0.125000 0.562500
v 0.250000 0.125000 0.562500
vn 0 1 0
f 353//89 354//89 355//89 356//89
v 0.500000 0.125000 0.812500
v 0.625000 0.125000 0.812500
v 0.625000 0.125000 0.562500
v 0.500000 0.125000 0.562500
vn 0 1 0
f 357//90 358//90 359//90 360//90
v 0.750000 0.125000 0.812500
v 0.875000 0.125000 0.812500
v 0.875000 0.125000 0.562500
v 0.750000 0.125000 0.562500
vn 0 1 0
f 361//91 362//91 363//91 364//91
v 1.000000 0.125000 0.812500
v 1.125000 0.125000 0.812500
v 1.125000 0.125000 0.562500
v 1.000000 0.125000 0.562500
vn 0 1 0
f 365//92 366//92 367//92 368//92
v 1.250000 0.125000 0.812500
v 1.500000 0.125000 0.812500
v 1.500000 0.125000 0.562500
v 1.250000 0.125000 0.562500
vn 0 1 0
f 369//93 370//93 371//93 372//93
v -1.375000 0.125000 0.812500
v -1.250000 0.125000 0.812500
v -1.250000 0.125000 0.687500
v -1.375000 0.125000 0.687500
vn 0 1 0
f 373//94 374//94 375//94 376//94
v -1.125000 0.125000 0.812500
v -1.000000 0.125000 0.812500
v -1.000000 0.125000 0.687500
v -1.125000 0.125000 0.687500
vn 0 1 0
f 377//95 378//95 379//95 380//95
v -0.875000 0.125000 0.812500
v -0.750000 0.125000 0.812500
v -0.750000 0.125000 0.687500
v -0.875000 0.125000 0.687500
vn 0 1 0
f 381//96 382//96 383//96 384//96
v -0.625000 0.125000 0.812500
v -0.500000 0.125000 0.812500
v -0.500000 0.125000 0.687500
v -0.625000 0.125000 0.687500
vn 0 1 0
f 385//97 386//97 387//97 388//97
v -0.375000 0.125000 0.812500
v -0.250000 0.125000 0.812500
v -0.250000 0.125000 0.687500
v -0.375000 0.125000 0.687500
vn 0 1 0
f 389//98 390//98 391//98 392//98
v -0.125000 0.125000 0.812500
v 0.000000 0.125000 0.812500
v 0.000000 0.125000 0.687500
v -0.125000 0.125000 0.687500
vn 0 1 0
f 393//99 394//99 395//99 396//99
v 0.125000 0.125000 0.812500
v 0.250000 0.125000 0.812500
v 0.250000 0.125000 0.687500
v 0.125000 0.125000 0.687500
vn 0 1 0
f 397//100 398//100 399//100 400//100
v 0.375000 0.125000 0.812500
v 0.500000 0.125000 0.812500
v 0.500000 0.125000 0.687500
v 0.375000 0.125000 0.687500
vn 0 1 0
f 401//101 402//101 403//101 404//101
v 0.625000 0.125000 0.812500
v 0.750000 0.125000 0.812500
v 0.750000 0.125000 0.687500
v 0.625000 0.125000 0.687500
vn 0 1 0
f 405//102 406//102 407//102 408//102
v 0.875000 0.125000 0.812500
v 1.000000 0.125000 0.812500
v 1.000000 0.125000 0.687500
v 0.875000 0.125000 0.687500
vn 0 1 0
f 409//103 410//103 411//103 412//103
v 1.125000 0.125000 0.812500
v 1.250000 0.125000 0.812500
v 1.250000 0.125000 0.687500
v 1.125000 0.125000 0.687500
vn 0 1 0
f 413//104 414//104 415//104 416//104
v 1.500000 0.062500 -0.812500
v 1.500000 0.125000 -0.812500
v 1.500000 0.125000 -0.437500
v 1.500000 0.062500 -0.437500
vn 1 0 0
f 417//105 418//105 419//105 420//105
v 1.500000 0.062500 -0.187500
v 1.500000 0.125000 -0.187500
v 1.500000 0.125000 0.187500
v 1.500000 0.062500 0.187500
vn 1 0 0
f 421//106 422//106 423//106 424//106
v 1.500000 0.062500 0.437500
v 1.500000 0.125000 0.437500
v 1.500000 0.125000 0.812500
v 1.500000 0.062500 0.812500
vn 1 0 0
f 425//107 426//107 427//107 428//107
g palette_3
usemtl palette_3
v -1.250000 0.125000 0.062500
v -1.250000 0.250000 0.062500
v -1.250000 0.250000 -0.062500
v -1.250000 0.125000 -0.062500
vn -1 0 0
f 429//108 430//108 431//108 432//108
v -0.875000 0.125000 -0.562500
v -0.875000 0.187500 -0.562500
v -0.875000 0.187500 -0.687500
v -0.875000 0.125000 -0.687500
vn -1 0 0
f 433//109 434//109 435//109 436//109
v -0.875000 0.125000 0.687500
v -0.875000 0.250000 0.687500
v -0.875000 0.250000 0.562500
v -0.875000 0.125000 0.562500
vn -1 0 0
f 437//110 438//110 439//110 440//110
v -0.625000 0.125000 -0.562500
v -0.625000 0.250000 -0.562500
v -0.625000 0.250000 -0.687500
v -0.625000 0.125000 -0.687500
vn -1 0 0
f 441//111 442//111 443//111 444//111
v -0.375000 0.125000 -0.562500
v -0.375000 0.187500 -0.562500
v -0.375000 0.187500 -0.687500
v -0.375000 0.125000 -0.687500
vn -1 0 0
f 445//112 446//112 447//112 448//112
v -0.250000 0.125000 0.062500
v -0.250000 0.187500 0.062500
v -0.250000 0.187500 -0.062500
v -0.250000 0.125000 -0.062500
vn -1 0 0
f 449//113 450//113 451//113 452//113
v 0.375000 0.125000 -0.562500
v 0.375000 0.250000 -0.562500
v 0.375000 0.250000 -0.687500
v 0.375000 0.125000 -0.687500
vn -1 0 0
f 453//114 454//114 455//114 456//114
v 0.375000 0.125000 0.687500
v 0.375000 0.187500 0.687500
v 0.375000 0.187500 0.562500
v 0.375000 0.125000 0.562500
vn -1 0 0
f 457//115 458//115 459//115 460//115
v 0.625000 0.125000 0.687500
v 0.625000 0.250000 0.687500
v 0.625000 0.250000 0.562500
v 0.625000 0.125000 0.562500
vn -1 0 0
f 461//116 462//116 463//116 464//116
v 0.875000 0.125000 -0.562500
v 0.875000 0.250000 -0.562500
v 0.875000 0.250000 -0.687500
v 0.875000 0.125000 -0.687500
vn -1 0 0
f 465//117 466//117 467//117 468//117
v 0.875000 0.125000 0.687500
v 0.875000 0.187500 0.687500
v 0.875000 0.187500 0.562500
v 0.875000 0.125000 0.562500
vn -1 0 0
f 469//118 470//118 471//118 472//118
v 1.000000 0.125000 0.062500
v 1.000000 0.250000 0.062500
v 1.000000 0.250000 -0.062500
v 1.000000 0.125000 -0.062500
vn -1 0 0
f 473//119 474//119 475//119 476//119
v 1.125000 0.125000 0.687500
v 1.125000 0.250000 0.687500
v 1.125000 0.250000 0.562500
v 1.125000 0.125000 0.562500
vn -1 0 0
f 477//120 478//120 479//120 480//120
v 1.250000 0.125000 0.062500
v 1.250000 0.250000 0.062500
v 1.250000 0.250000 -0.062500
v 1.250000 0.125000 -0.062500
vn -1 0 0
f 481//121 482//121 483//121 484//121
v -0.875000 0.125000 -0.687500
v -0.875000 0.187500 -0.687500
v -0.750000 0.187500 -0.687500
v -0.750000 0.125000 -0.687500
vn 0 0 -1
f 485//122 486//122 487//122 488//122
v -0.625000 0.125000 -0.687500
v -0.625000 0.250000 -0.687500
v -0.500000 0.250000 -0.687500
v -0.500000 0.125000 -0.687500
vn 0 0 -1
f 489//123 490//123 491//123 492//123
v -0.375000 0.125000 -0.687500
v -0.375000 0.187500 -0.687500
v -0.250000 0.187500 -0.687500
v -0.250000 0.125000 -0.687500
vn 0 0 -1
f 493//124 494//124 495//124 496//124
v 0.375000 0.125000 -0.687500
v 0.375000 0.250000 -0.687500
v 0.500000 0.250000 -0.687500
v 0.500000 0.125000 -0.687500
vn 0 0 -1
f 497//125 498//125 499//125 500//125
v 0.875000 0.125000 -0.687500
v 0.875000 0.250000 -0.687500
v 1.000000 0.250000 -0.687500
v 1.000000 0.125000 -0.687500
vn 0 0 -1
f 501//126 502//126 503//126 504//126
v -1.250000 0.125000 -0.062500
v -1.250000 0.250000 -0.062500
v -1.125000 0.250000 -0.062500
v -1.125000 0.125000 -0.062500
vn 0 0 -1
f 505//127 506//127 507//127 508//127
v -0.250000 0.125000 -0.062500
v -0.250000 0.187500 -0.062500
v -0.125000 0.187500 -0.062500
v -0.125000 0.125000 -0.062500
vn 0 0 -1
f 509//128 510//128 511//128 512//128
v 1.000000 0.125000 -0.062500
v 1.000000 0.250000 -0.062500
v 1.125000 0.250000 -0.062500
v 1.125000 0.125000 -0.062500
vn 0 0 -1
f 513//129 514//129 515//129 516//129
v 1.250000 0.125000 -0.062500
v 1.250000 0.250000 -0.062500
v 1.375000 0.250000 -0.062500
v 1.375000 0.125000 -0.062500
vn 0 0 -1
f 517//130 518//130 519//130 520//130
v -0.875000 0.125000 0.562500
v -0.875000 0.250000 0.562500
v -0.750000 0.250000 0.562500
v -0.750000 0.125000 0.562500
vn 0 0 -1
f 521//131 522//131 523//131 524//131
v 0.375000 0.125000 0.562500
v 0.375000 0.187500 0.562500
v 0.500000 0.187500 0.562500
v 0.500000 0.125000 0.562500
vn 0 0 -1
f 525//132 526//132 527//132 528//132
v 0.625000 0.125000 0.562500
v 0.625000 0.250000 0.562500
v 0.750000 0.250000 0.562500
v 0.750000 0.125000 0.562500
vn 0 0 -1
f 529//133 530//133 531//133 532//133
v 0.875000 0.125000 0.562500
v 0.875000 0.187500 0.562500
v 1.000000 0.187500 0.562500
v 1.000000 0.125000 0.562500
vn 0 0 -1
f 533//134 534//134 535//134 536//134
v 1.125000 0.125000 0.562500
v 1.125000 0.250000 0.562500
v 1.250000 0.250000 0.562500
v 1.250000 0.125000 0.562500
vn 0 0 -1
f 537//135 538//135 539//135 540//135
v -0.750000 0.125000 -0.562500
v -0.750000 0.187500 -0.562500
v -0.875000 0.187500 -0.562500
v -0.875000 0.125000 -0.562500
vn 0 0 1
f 541//136 542//136 543//136 544//136
v -0.500000 0.125000 -0.562500
v -0.500000 0.250000 -0.562500
v -0.625000 0.250000 -0.562500
v -0.625000 0.125000 -0.562500
vn 0 0 1
f 545//137 546//137 547//137 548//137
v -0.250000 0.125000 -0.562500
v -0.250000 0.187500 -0.562500
v -0.375000 0.187500 -0.562500
v -0.375000 0.125000 -0.562500
vn 0 0 1
f 549//138 550//138 551//138 552//138
v 0.500000 0.125000 -0.562500
v 0.500000 0.250000 -0.562500
v 0.375000 0.250000 -0.562500
v 0.375000 0.125000 -0.562500
vn 0 0 1
f 553//139 554//139 555//139 556//139
v 1.000000 0.125000 -0.562500
v 1.000000 0.250000 -0.562500
v 0.875000 0.250000 -0.562500
v 0.875000 0.125000 -0.562500
vn 0 0 1
f 557//140 558//140 559//140 560//140
v -1.125000 0.125000 0.062500
v -1.125000 0.250000 0.062500
v -1.250000 0.250000 0.062500
v -1.250000 0.125000 0.062500
vn 0 0 1
f 561//141 562//141 563//141 564//141
v -0.125000 0.125000 0.062500
v -0.125000 0.187500 0.062500
v -0.250000 0.187500 0.062500
v -0.250000 0.125000 0.062500
vn 0 0 1
f 565//142 566//142 567//142 568//142
v 1.125000 0.125000 0.062500
v 1.125000 0.250000 0.062500
v 1.000000 0.250000 0.062500
v 1.000000 0.125000 0.062500
vn 0 0 1
f 569//143 570//143 571//143 572//143
v 1.375000 0.125000 0.062500
v 1.375000 0.250000 0.062500
v 1.250000 0.250000 0.062500
v 1.250000 0.125000 0.062500
vn 0 0 1
f 573//144 574//144 575//144 576//144
v -0.750000 0.125000 0.687500
v -0.750000 0.250000 0.687500
v -0.875000 0.250000 0.687500
v -0.875000 0.125000 0.687500
vn 0 0 1
f 577//145 578//145 579//145 580//145
v 0.500000 0.125000 0.687500
v 0.500000 0.187500 0.687500
v 0.375000 0.187500 0.687500
v 0.375000 0.125000 0.687500
vn 0 0 1
f 581//146 582//146 583//146 584//146
v 0.750000 0.125000 0.687500
v 0.750000 0.250000 0.687500
v 0.625000 0.250000 0.687500
v 0.625000 0.125000 0.687500
vn 0 0 1
f 585//147 586//147 587//147 588//147
v 1.000000 0.125000 0.687500
v 1.000000 0.187500 0.687500
v 0.875000 0.187500 0.687500
v 0.875000 0.125000 0.687500
vn 0 0 1
f 589//148 590//148 591//148 592//148
v 1.250000 0.125000 0.687500
v 1.250000 0.250000 0.687500
v 1.125000 0.250000 0.687500
v 1.125000 0.125000 0.687500
vn 0 0 1
f 593//149 594//149 595//149 596//149
v -0.875000 0.187500 -0.625000
v -0.750000 0.187500 -0.625000
v -0.750000 0.187500 -0.687500
v -0.875000 0.187500 -0.687500
vn 0 1 0
f 597//150 598//150 599//150 600//150
v -0.375000 0.187500 -0.625000
v -0.250000 0.187500 -0.625000
v -0.250000 0.187500 -0.687500
v -0.375000 0.187500 -0.687500
vn 0 1 0
f 601//151 602//151 603//151 604//151
v -0.812500 0.187500 -0.562500
v -0.750000 0.187500 -0.562500
v -0.750000 0.187500 -0.625000
v -0.812500 0.187500 -0.625000
vn 0 1 0
f 605//152 606//152 607//152 608//152
v -0.312500 0.187500 -0.562500
v -0.250000 0.187500 -0.562500
v -0.250000 0.187500 -0.625000
v -0.312500 0.187500 -0.625000
vn 0 1 0
f 609//153 610//153 611//153 612//153
v -0.250000 0.187500 0.062500
v -0.125000 0.187500 0.062500
v -0.125000 0.187500 -0.062500
v -0.250000 0.187500 -0.062500
vn 0 1 0
f 613//154 614//154 615//154 616//154
v 0.375000 0.187500 0.687500
v 0.500000 0.187500 0.687500
v 0.500000 0.187500 0.562500
v 0.375000 0.187500 0.562500
vn 0 1 0
f 617//155 618//155 619//155 620//155
v 0.875000 0.187500 0.625000
v 1.000000 0.187500 0.625000
v 1.000000 0.187500 0.562500
v 0.875000 0.187500 0.562500
vn 0 1 0
f 621//156 622//156 623//156 624//156
v 0.937500 0.187500 0.687500
v 1.000000 0.187500 0.687500
v 1.000000 0.187500 0.625000
v 0.937500 0.187500 0.625000
vn 0 1 0
f 625//157 626//157 627//157 628//157
v -0.625000 0.250000 -0.625000
v -0.500000 0.250000 -0.625000
v -0.500000 0.250000 -0.687500
v -0.625000 0.250000 -0.687500
vn 0 1 0
f 629//158 630//158 631//158 632//158
v 0.375000 0.250000 -0.562500
v 0.500000 0.250000 -0.562500
v 0.500000 0.250000 -0.687500
v 0.375000 0.250000 -0.687500
vn 0 1 0
f 633//159 634//159 635//159 636//159
v 0.875000 0.250000 -0.562500
v 1.000000 0.250000 -0.562500
v 1.000000 0.250000 -0.687500
v 0.875000 0.250000 -0.687500
vn 0 1 0
f 637//160 638//160 639//160 640//160
v -0.562500 0.250000 -0.562500
v -0.500000 0.250000 -0.562500
v -0.500000 0.250000 -0.625000
v -0.562500 0.250000 -0.625000
vn 0 1 0
f 641//161 642//161 643//161 644//161
v -1.250000 0.250000 0.062500
v -1.125000 0.250000 0.062500
v -1.125000 0.250000 -0.062500
v -1.250000 0.250000 -0.062500
vn 0 1 0
f 645//162 646//162 647//162 648//162
v 1.000000 0.250000 0.000000
v 1.125000 0.250000 0.000000
v 1.125000 0.250000 -0.062500
v 1.000000 0.250000 -0.062500
vn 0 1 0
f 649//163 650//163 651//163 652//163
v 1.250000 0.250000 0.062500
v 1.375000 0.250000 0.062500
v 1.375000 0.250000 -0.062500
v 1.250000 0.250000 -0.062500
vn 0 1 0
f 653//164 654//164 655//164 656//164
v 1.062500 0.250000 0.062500
v 1.125000 0.250000 0.062500
v 1.125000 0.250000 0.000000
v 1.062500 0.250000 0.000000
vn 0 1 0
f 657//165 658//165 659//165 660//165
v -0.875000 0.250000 0.687500
v -0.750000 0.250000 0.687500
v -0.750000 0.250000 0.562500
v -0.875000 0.250000 0.562500
vn 0 1 0
f 661//166 662//166 663//166 664//166
v 0.625000 0.250000 0.687500
v 0.750000 0.250000 0.687500
v 0.750000 0.250000 0.562500
v 0.625000 0.250000 0.562500
vn 0 1 0
f 665//167 666//167 667//167 668//167
v 1.125000 0.250000 0.625000
v 1.250000 0.250000 0.625000
v 1.250000 0.250000 0.562500
v 1.125000 0.250000 0.562500
vn 0 1 0
f 669//168 670//168 671//168 672//168
v 1.187500 0.250000 0.687500
v 1.250000 0.250000 0.687500
v 1.250000 0.250000 0.625000
v 1.187500 0.250000 0.625000
vn 0 1 0
f 673//169 674//169 675//169 676//169
v -1.125000 0.125000 -0.062500
v -1.125000 0.250000 -0.062500
v -1.125000 0.250000 0.062500
v -1.125000 0.125000 0.062500
vn 1 0 0
f 677//170 678//170 679//170 680//170
v -0.750000 0.125000 -0.687500
v -0.750000 0.187500 -0.687500
v -0.750000 0.187500 -0.562500
v -0.750000 0.125000 -0.562500
vn 1 0 0
f 681//171 682//171 683//171 684//171
v -0.750000 0.125000 0.562500
v -0.750000 0.250000 0.562500
v -0.750000 0.250000 0.687500
v -0.750000 0.125000 0.687500
vn 1 0 0
f 685//172 686//172 687//172 688//172
v -0.500000 0.125000 -0.687500
v -0.500000 0.250000 -0.687500
v -0.500000 0.250000 -0.562500
v -0.500000 0.125000 -0.562500
vn 1 0 0
f 689//173 690//173 691//173 692//173
v -0.250000 0.125000 -0.687500
v -0.250000 0.187500 -0.687500
v -0.250000 0.187500 -0.562500
v -0.250000 0.125000 -0.562500
vn 1 0 0
f 693//174 694//174 695//174 696//174
v -0.125000 0.125000 -0.062500
v -0.125000 0.187500 -0.062500
v -0.125000 0.187500 0.062500
v -0.125000 0.125000 0.062500
vn 1 0 0
f 697//175 698//175 699//175 700//175
v 0.500000 0.125000 -0.687500
v 0.500000 0.250000 -0.687500
v 0.500000 0.250000 -0.562500
v 0.500000 0.125000 -0.562500
vn 1 0 0
f 701//176 702//176 703//176 704//176
v 0.500000 0.125000 0.562500
v 0.500000 0.187500 0.562500
v 0.500000 0.187500 0.687500
v 0.500000 0.125000 0.687500
vn 1 0 0
f 705//177 706//177 707//177 708//177
v 0.750000 0.125000 0.562500
v 0.750000 0.250000 0.562500
v 0.750000 0.250000 0.687500
v 0.750000 0.125000 0.687500
vn 1 0 0
f 709//178 710//178 711//178 712//178
v 1.000000 0.125000 -0.687500
v 1.000000 0.250000 -0.687500
v 1.000000 0.250000 -0.562500
v 1.000000 0.125000 -0.562500
vn 1 0 0
f 713//179 714//179 715//179 716//179
v 1.000000 0.125000 0.562500
v 1.000000 0.187500 0.562500
v 1.000000 0.187500 0.687500
v 1.000000 0.125000 0.687500
vn 1 0 0
f 717//180 718//180 719//180 720//180
v 1.125000 0.125000 -0.062500
v 1.125000 0.250000 -0.062500
v 1.125000 0.250000 0.062500
v 1.125000 0.125000 0.062500
vn 1 0 0
f 721//181 722//181 723//181 724//181
v 1.250000 0.125000 0.562500
v 1.250000 0.250000 0.562500
v 1.250000 0.250000 0.687500
v 1.250000 0.125000 0.687500
vn 1 0 0
f 725//182 726//182 727//182 728//182
v 1.375000 0.125000 -0.062500
v 1.375000 0.250000 -0.062500
v 1.375000 0.250000 0.062500
v 1.375000 0.125000 0.062500
vn 1 0 0
f 729//183 730//183 731//183 732//183
g palette_4
usemtl palette_4
v -1.375000 0.125000 -0.562500
v -1.375000 0.187500 -0.562500
v -1.375000 0.187500 -0.687500
v -1.375000 0.125000 -0.687500
vn -1 0 0
f 733//184 734//184 735//184 736//184
v -1.375000 0.125000 0.687500
v -1.375000 0.187500 0.687500
v -1.375000 0.187500 0.562500
v -1.375000 0.125000 0.562500
vn -1 0 0
f 737//185 738//185 739//185 740//185
v -1.125000 0.125000 -0.562500
v -1.125000 0.250000 -0.562500
v -1.125000 0.250000 -0.687500
v -1.125000 0.125000 -0.687500
vn -1 0 0
f 741//186 742//186 743//186 744//186
v -1.125000 0.125000 0.687500
v -1.125000 0.250000 0.687500
v -1.125000 0.250000 0.562500
v -1.125000 0.125000 0.562500
vn -1 0 0
f 745//187 746//187 747//187 748//187
v -1.000000 0.125000 0.062500
v -1.000000 0.187500 0.062500
v -1.000000 0.187500 -0.062500
v -1.000000 0.125000 -0.062500
vn -1 0 0
f 749//188 750//188 751//188 752//188
v -0.750000 0.125000 0.062500
v -0.750000 0.187500 0.062500
v -0.750000 0.187500 -0.062500
v -0.750000 0.125000 -0.062500
vn -1 0 0
f 753//189 754//189 755//189 756//189
v -0.625000 0.125000 0.687500
v -0.625000 0.250000 0.687500
v -0.625000 0.250000 0.562500
v -0.625000 0.125000 0.562500
vn -1 0 0
f 757//190 758//190 759//190 760//190
v -0.500000 0.125000 0.062500
v -0.500000 0.187500 0.062500
v -0.500000 0.187500 -0.062500
v -0.500000 0.125000 -0.062500
vn -1 0 0
f 761//191 762//191 763//191 764//191
v -0.375000 0.125000 0.687500
v -0.375000 0.187500 0.687500
v -0.375000 0.187500 0.562500
v -0.375000 0.125000 0.562500
vn -1 0 0
f 765//192 766//192 767//192 768//192
v -0.125000 0.125000 -0.562500
v -0.125000 0.250000 -0.562500
v -0.125000 0.250000 -0.687500
v -0.125000 0.125000 -0.687500
vn -1 0 0
f 769//193 770//193 771//193 772//193
v -0.125000 0.125000 0.687500
v -0.125000 0.250000 0.687500
v -0.125000 0.250000 0.562500
v -0.125000 0.125000 0.562500
vn -1 0 0
f 773//194 774//194 775//194 776//194
v 0.000000 0.125000 0.062500
v 0.000000 0.250000 0.062500
v 0.000000 0.250000 -0.062500
v 0.000000 0.125000 -0.062500
vn -1 0 0
f 777//195 778//195 779//195 780//195
v 0.125000 0.125000 -0.562500
v 0.125000 0.187500 -0.562500
v 0.125000 0.187500 -0.687500
v 0.125000 0.125000 -0.687500
vn -1 0 0
f 781//196 782//196 783//196 784//196
v 0.125000 0.125000 0.687500
v 0.125000 0.250000 0.687500
v 0.125000 0.250000 0.562500
v 0.125000 0.125000 0.562500
vn -1 0 0
f 785//197 786//197 787//197 788//197
v 0.250000 0.125000 0.062500
v 0.250000 0.250000 0.062500
v 0.250000 0.250000 -0.062500
v 0.250000 0.125000 -0.062500
vn -1 0 0
f 789//198 790//198 791//198 792//198
v 0.500000 0.125000 0.062500
v 0.500000 0.187500 0.062500
v 0.500000 0.187500 -0.062500
v 0.500000 0.125000 -0.062500
vn -1 0 0
f 793//199 794//199 795//199 796//199
v 0.625000 0.125000 -0.562500
v 0.625000 0.250000 -0.562500
v 0.625000 0.250000 -0.687500
v 0.625000 0.125000 -0.687500
vn -1 0 0
f 797//200 798//200 799//200 800//200
v 0.750000 0.125000 0.062500
v 0.750000 0.187500 0.062500
v 0.750000 0.187500 -0.062500
v 0.750000 0.125000 -0.062500
vn -1 0 0
f 801//201 802//201 803//201 804//201
v 1.125000 0.125000 -0.562500
v 1.125000 0.187500 -0.562500
v 1.125000 0.187500 -0.687500
v 1.125000 0.125000 -0.687500
vn -1 0 0
f 805//202 806//202 807//202 808//202
v -1.375000 0.125000 -0.687500
v -1.375000 0.187500 -0.687500
v -1.250000 0.187500 -0.687500
v -1.250000 0.125000 -0.687500
vn 0 0 -1
f 809//203 810//203 811//203 812//203
v -1.125000 0.125000 -0.687500
v -1.125000 0.250000 -0.687500
v -1.000000 0.250000 -0.687500
v -1.000000 0.125000 -0.687500
vn 0 0 -1
f 813//204 814//204 815//204 816//204
v -0.125000 0.125000 -0.687500
v -0.125000 0.250000 -0.687500
v 0.000000 0.250000 -0.687500
v 0.000000 0.125000 -0.687500
vn 0 0 -1
f 817//205 818//205 819//205 820//205
v 0.125000 0.125000 -0.687500
v 0.125000 0.187500 -0.687500
v 0.250000 0.187500 -0.687500
v 0.250000 0.125000 -0.687500
vn 0 0 -1
f 821//206 822//206 823//206 824//206
v 0.625000 0.125000 -0.687500
v 0.625000 0.250000 -0.687500
v 0.750000 0.250000 -0.687500
v 0.750000 0.125000 -0.687500
vn 0 0 -1
f 825//207 826//207 827//207 828//207
v 1.125000 0.125000 -0.687500
v 1.125000 0.187500 -0.687500
v 1.250000 0.187500 -0.687500
v 1.250000 0.125000 -0.687500
vn 0 0 -1
f 829//208 830//208 831//208 832//208
v -1.000000 0.125000 -0.062500
v -1.000000 0.187500 -0.062500
v -0.875000 0.187500 -0.062500
v -0.875000 0.125000 -0.062500
vn 0 0 -1
f 833//209 834//209 835//209 836//209
v -0.750000 0.125000 -0.062500
v -0.750000 0.187500 -0.062500
v -0.625000 0.187500 -0.062500
v -0.625000 0.125000 -0.062500
vn 0 0 -1
f 837//210 838//210 839//210 840//210
v -0.500000 0.125000 -0.062500
v -0.500000 0.187500 -0.062500
v -0.375000 0.187500 -0.062500
v -0.375000 0.125000 -0.062500
vn 0 0 -1
f 841//211 842//211 843//211 844//211
v 0.000000 0.125000 -0.062500
v 0.000000 0.250000 -0.062500
v 0.125000 0.250000 -0.062500
v 0.125000 0.125000 -0.062500
vn 0 0 -1
f 845//212 846//212 847//212 848//212
v 0.250000 0.125000 -0.062500
v 0.250000 0.250000 -0.062500
v 0.375000 0.250000 -0.062500
v 0.375000 0.125000 -0.062500
vn 0 0 -1
f 849//213 850//213 851//213 852//213
v 0.500000 0.125000 -0.062500
v 0.500000 0.187500 -0.062500
v 0.625000 0.187500 -0.062500
v 0.625000 0.125000 -0.062500
vn 0 0 -1
f 853//214 854//214 855//214 856//214
v 0.750000 0.125000 -0.062500
v 0.750000 0.187500 -0.062500
v 0.875000 0.187500 -0.062500
v 0.875000 0.125000 -0.062500
vn 0 0 -1
f 857//215 858//215 859//215 860//215
v -1.375000 0.125000 0.562500
v -1.375000 0.187500 0.562500
v -1.250000 0.187500 0.562500
v -1.250000 0.125000 0.562500
vn 0 0 -1
f 861//216 862//216 863//216 864//216
v -1.125000 0.125000 0.562500
v -1.125000 0.250000 0.562500
v -1.000000 0.250000 0.562500
v -1.000000 0.125000 0.562500
vn 0 0 -1
f 865//217 866//217 867//217 868//217
v -0.625000 0.125000 0.562500
v -0.625000 0.250000 0.562500
v -0.500000 0.250000 0.562500
v -0.500000 0.125000 0.562500
vn 0 0 -1
f 869//218 870//218 871//218 872//218
v -0.375000 0.125000 0.562500
v -0.375000 0.187500 0.562500
v -0.250000 0.187500 0.562500
v -0.250000 0.125000 0.562500
vn 0 0 -1
f 873//219 874//219 875//219 876//219
v -0.125000 0.125000 0.562500
v -0.125000 0.250000 0.562500
v 0.000000 0.250000 0.562500
v 0.000000 0.125000 0.562500
vn 0 0 -1
f 877//220 878//220 879//220 880//220
v 0.125000 0.125000 0.562500
v 0.125000 0.250000 0.562500
v 0.250000 0.250000 0.562500
v 0.250000 0.125000 0.562500
vn 0 0 -1
f 881//221 882//221 883//221 884//221
v -1.250000 0.125000 -0.562500
v -1.250000 0.187500 -0.562500
v -1.375000 0.187500 -0.562500
v -1.375000 0.125000 -0.562500
vn 0 0 1
f 885//222 886//222 887//222 888//222
v -1.000000 0.125000 -0.562500
v -1.000000 0.250000 -0.562500
v -1.125000 0.250000 -0.562500
v -1.125000 0.125000 -0.562500
vn 0 0 1
f 889//223 890//223 891//223 892//223
v 0.000000 0.125000 -0.562500
v 0.000000 0.250000 -0.562500
v -0.125000 0.250000 -0.562500
v -0.125000 0.125000 -0.562500
vn 0 0 1
f 893//224 894//224 895//224 896//224
v 0.250000 0.125000 -0.562500
v 0.250000 0.187500 -0.562500
v 0.125000 0.187500 -0.562500
v 0.125000 0.125000 -0.562500
vn 0 0 1
f 897//225 898//225 899//225 900//225
v 0.750000 0.125000 -0.562500
v 0.750000 0.250000 -0.562500
v 0.625000 0.250000 -0.562500
v 0.625000 0.125000 -0.562500
vn 0 0 1
f 901//226 902//226 903//226 904//226
v 1.250000 0.125000 -0.562500
v 1.250000 0.187500 -0.562500
v 1.125000 0.187500 -0.562500
v 1.125000 0.125000 -0.562500
vn 0 0 1
f 905//227 906//227 907//227 908//227
v -0.875000 0.125000 0.062500
v -0.875000 0.187500 0.062500
v -1.000000 0.187500 0.062500
v -1.000000 0.125000 0.062500
vn 0 0 1
f 909//228 910//228 911//228 912//228
v -0.625000 0.125000 0.062500
v -0.625000 0.187500 0.062500
v -0.750000 0.187500 0.062500
v -0.750000 0.125000 0.062500
vn 0 0 1
f 913//229 914//229 915//229 916//229
v -0.375000 0.125000 0.062500
v -0.375000 0.187500 0.062500
v -0.500000 0.187500 0.062500
v -0.500000 0.125000 0.062500
vn 0 0 1
f 917//230 918//230 919//230 920//230
v 0.125000 0.125000 0.062500
v 0.125000 0.250000 0.062500
v 0.000000 0.250000 0.062500
v 0.000000 0.125000 0.062500
vn 0 0 1
f 921//231 922//231 923//231 924//231
v 0.375000 0.125000 0.062500
v 0.375000 0.250000 0.062500
v 0.250000 0.250000 0.062500
v 0.250000 0.125000 0.062500
vn 0 0 1
f 925//232 926//232 927//232 928//232
v 0.625000 0.125000 0.062500
v 0.625000 0.187500 0.062500
v 0.500000 0.187500 0.062500
v 0.500000 0.125000 0.062500
vn 0 0 1
f 929//233 930//233 931//233 932//233
v 0.875000 0.125000 0.062500
v 0.875000 0.187500 0.062500
v 0.750000 0.187500 0.062500
v 0.750000 0.125000 0.062500
vn 0 0 1
f 933//234 934//234 935//234 936//234
v -1.250000 0.125000 0.687500
v -1.250000 0.187500 0.687500
v -1.375000 0.187500 0.687500
v -1.375000 0.125000 0.687500
vn 0 0 1
f 937//235 938//235 939//235 940//235
v -1.000000 0.125000 0.687500
v -1.000000 0.250000 0.687500
v -1.125000 0.250000 0.687500
v -1.125000 0.125000 0.687500
vn 0 0 1
f 941//236 942//236 943//236 944//236
v -0.500000 0.125000 0.687500
v -0.500000 0.250000 0.687500
v -0.625000 0.250000 0.687500
v -0.625000 0.125000 0.687500
vn 0 0 1
f 945//237 946//237 947//237 948//237
v -0.250000 0.125000 0.687500
v -0.250000 0.187500 0.687500
v -0.375000 0.187500 0.687500
v -0.375000 0.125000 0.687500
vn 0 0 1
f 949//238 950//238 951//238 952//238
v 0.000000 0.125000 0.687500
v 0.000000 0.250000 0.687500
v -0.125000 0.250000 0.687500
v -0.125000 0.125000 0.687500
vn 0 0 1
f 953//239 954//239 955//239 956//239
v 0.250000 0.125000 0.687500
v 0.250000 0.250000 0.687500
v 0.125000 0.250000 0.687500
v 0.125000 0.125000 0.687500
vn 0 0 1
f 957//240 958//240 959//240 960//240
v -1.375000 0.187500 -0.625000
v -1.250000 0.187500 -0.625000
v -1.250000 0.187500 -0.687500
v -1.375000 0.187500 -0.687500
vn 0 1 0
f 961//241 962//241 963//241 964//241
v 0.125000 0.187500 -0.625000
v 0.250000 0.187500 -0.625000
v 0.250000 0.187500 -0.687500
v 0.125000 0.187500 -0.687500
vn 0 1 0
f 965//242 966//242 967//242 968//242
v 1.125000 0.187500 -0.562500
v 1.250000 0.187500 -0.562500
v 1.250000 0.187500 -0.687500
v 1.125000 0.187500 -0.687500
vn 0 1 0
f 969//243 970//243 971//243 972//243
v -1.312500 0.187500 -0.562500
v -1.250000 0.187500 -0.562500
v -1.250000 0.187500 -0.625000
v -1.312500 0.187500 -0.625000
vn 0 1 0
f 973//244 974//244 975//244 976//244
v 0.187500 0.187500 -0.562500
v 0.250000 0.187500 -0.562500
v 0.250000 0.187500 -0.625000
v 0.187500 0.187500 -0.625000
vn 0 1 0
f 977//245 978//245 979//245 980//245
v -1.000000 0.187500 0.000000
v -0.875000 0.187500 0.000000
v -0.875000 0.187500 -0.062500
v -1.000000 0.187500 -0.062500
vn 0 1 0
f 981//246 982//246 983//246 984//246
v -0.750000 0.187500 0.062500
v -0.625000 0.187500 0.062500
v -0.625000 0.187500 -0.062500
v -0.750000 0.187500 -0.062500
vn 0 1 0
f 985//247 986//247 987//247 988//247
v -0.500000 0.187500 0.062500
v -0.375000 0.187500 0.062500
v -0.375000 0.187500 -0.062500
v -0.500000 0.187500 -0.062500
vn 0 1 0
f 989//248 990//248 991//248 992//248
v 0.500000 0.187500 0.062500
v 0.625000 0.187500 0.062500
v 0.625000 0.187500 -0.062500
v 0.500000 0.187500 -0.062500
vn 0 1 0
f 993//249 994//249 995//249 996//249
v 0.750000 0.187500 0.000000
v 0.875000 0.187500 0.000000
v 0.875000 0.187500 -0.062500
v 0.750000 0.187500 -0.062500
vn 0 1 0
f 997//250 998//250 999//250 1000//250
v -0.937500 0.187500 0.062500
v -0.875000 0.187500 0.062500
v -0.875000 0.187500 0.000000
v -0.937500 0.187500 0.000000
vn 0 1 0
f 1001//251 1002//251 1003//251 1004//251
v 0.812500 0.187500 0.062500
v 0.875000 0.187500 0.062500
v 0.875000 0.187500 0.000000
v 0.812500 0.187500 0.000000
vn 0 1 0
f 1005//252 1006//252 1007//252 1008//252
v -1.375000 0.187500 0.687500
v -1.250000 0.187500 0.687500
v -1.250000 0.187500 0.562500
v -1.375000 0.187500 0.562500
vn 0 1 0
f 1009//253 1010//253 1011//253 1012//253
v -0.375000 0.187500 0.687500
v -0.250000 0.187500 0.687500
v -0.250000 0.187500 0.562500
v -0.375000 0.187500 0.562500
vn 0 1 0
f 1013//254 1014//254 1015//254 1016//254
v -1.125000 0.250000 -0.562500
v -1.000000 0.250000 -0.562500
v -1.000000 0.250000 -0.687500
v -1.125000 0.250000 -0.687500
vn 0 1 0
f 1017//255 1018//255 1019//255 1020//255
v -0.125000 0.250000 -0.562500
v 0.000000 0.250000 -0.562500
v 0.000000 0.250000 -0.687500
v -0.125000 0.250000 -0.687500
vn 0 1 0
f 1021//256 1022//256 1023//256 1024//256
v 0.625000 0.250000 -0.625000
v 0.750000 0.250000 -0.625000
v 0.750000 0.250000 -0.687500
v 0.625000 0.250000 -0.687500
vn 0 1 0
f 1025//257 1026//257 1027//257 1028//257
v 0.687500 0.250000 -0.562500
v 0.750000 0.250000 -0.562500
v 0.750000 0.250000 -0.625000
v 0.687500 0.250000 -0.625000
vn 0 1 0
f 1029//258 1030//258 1031//258 1032//258
v 0.000000 0.250000 0.062500
v 0.125000 0.250000 0.062500
v 0.125000 0.250000 -0.062500
v 0.000000 0.250000 -0.062500
vn 0 1 0
f 1033//259 1034//259 1035//259 1036//259
v 0.250000 0.250000 0.062500
v 0.375000 0.250000 0.062500
v 0.375000 0.250000 -0.062500
v 0.250000 0.250000 -0.062500
vn 0 1 0
f 1037//260 1038//260 1039//260 1040//260
v -1.125000 0.250000 0.687500
v -1.000000 0.250000 0.687500
v -1.000000 0.250000 0.562500
v -1.125000 0.250000 0.562500
vn 0 1 0
f 1041//261 1042//261 1043//261 1044//261
v -0.625000 0.250000 0.687500
v -0.500000 0.250000 0.687500
v -0.500000 0.250000 0.562500
v -0.625000 0.250000 0.562500
vn 0 1 0
f 1045//262 1046//262 1047//262 1048//262
v -0.125000 0.250000 0.625000
v 0.000000 0.250000 0.625000
v 0.000000 0.250000 0.562500
v -0.125000 0.250000 0.562500
vn 0 1 0
f 1049//263 1050//263 1051//263 1052//263
v 0.125000 0.250000 0.687500
v 0.250000 0.250000 0.687500
v 0.250000 0.250000 0.562500
v 0.125000 0.250000 0.562500
vn 0 1 0
f 1053//264 1054//264 1055//264 1056//264
v -0.062500 0.250000 0.687500
v 0.000000 0.250000 0.687500
v 0.000000 0.250000 0.625000
v -0.062500 0.250000 0.625000
vn 0 1 0
f 1057//265 1058//265 1059//265 1060//265
v -1.250000 0.125000 -0.687500
v -1.250000 0.187500 -0.687500
v -1.250000 0.187500 -0.562500
v -1.250000 0.125000 -0.562500
vn 1 0 0
f 1061//266 1062//266 1063//266 1064//266
v -1.250000 0.125000 0.562500
v -1.250000 0.187500 0.562500
v -1.250000 0.187500 0.687500
v -1.250000 0.125000 0.687500
vn 1 0 0
f 1065//267 1066//267 1067//267 1068//267
v -1.000000 0.125000 -0.687500
v -1.000000 0.250000 -0.687500
v -1.000000 0.250000 -0.562500
v -1.000000 0.125000 -0.562500
vn 1 0 0
f 1069//268 1070//268 1071//268 1072//268
v -1.000000 0.125000 0.562500
v -1.000000 0.250000 0.562500
v -1.000000 0.250000 0.687500
v -1.000000 0.125000 0.687500
vn 1 0 0
f 1073//269 1074//269 1075//269 1076//269
v -0.875000 0.125000 -0.062500
v -0.875000 0.187500 -0.062500
v -0.875000 0.187500 0.062500
v -0.875000 0.125000 0.062500
vn 1 0 0
f 1077//270 1078//270 1079//270 1080//270
v -0.625000 0.125000 -0.062500
v -0.625000 0.187500 -0.062500
v -0.625000 0.187500 0.062500
v -0.625000 0.125000 0.062500
vn 1 0 0
f 1081//271 1082//271 1083//271 1084//271
v -0.500000 0.125000 0.562500
v -0.500000 0.250000 0.562500
v -0.500000 0.250000 0.687500
v -0.500000 0.125000 0.687500
vn 1 0 0
f 1085//272 1086//272 1087//272 1088//272
v -0.375000 0.125000 -0.062500
v -0.375000 0.187500 -0.062500
v -0.375000 0.187500 0.062500
v -0.375000 0.125000 0.062500
vn 1 0 0
f 1089//273 1090//273 1091//273 1092//273
v -0.250000 0.125000 0.562500
v -0.250000 0.187500 0.562500
v -0.250000 0.187500 0.687500
v -0.250000 0.125000 0.687500
vn 1 0 0
f 1093//274 1094//274 1095//274 1096//274
v 0.000000 0.125000 -0.687500
v 0.000000 0.250000 -0.687500
v 0.000000 0.250000 -0.562500
v 0.000000 0.125000 -0.562500
vn 1 0 0
f 1097//275 1098//275 1099//275 1100//275
v 0.000000 0.125000 0.562500
v 0.000000 0.250000 0.562500
v 0.000000 0.250000 0.687500
v 0.000000 0.125000 0.687500
vn 1 0 0
f 1101//276 1102//276 1103//276 1104//276
v 0.125000 0.125000 -0.062500
v 0.125000 0.250000 -0.062500
v 0.125000 0.250000 0.062500
v 0.125000 0.125000 0.062500
vn 1 0 0
f 1105//277 1106//277 1107//277 1108//277
v 0.250000 0.125000 -0.687500
v 0.250000 0.187500 -0.687500
v 0.250000 0.187500 -0.562500
v 0.250000 0.125000 -0.562500
vn 1 0 0
f 1109//278 1110//278 1111//278 1112//278
v 0.250000 0.125000 0.562500
v 0.250000 0.250000 0.562500
v 0.250000 0.250000 0.687500
v 0.250000 0.125000 0.687500
vn 1 0 0
f 1113//279 1114//279 1115//279 1116//279
v 0.375000 0.125000 -0.062500
v 0.375000 0.250000 -0.062500
v 0.375000 0.250000 0.062500
v 0.375000 0.125000 0.062500
vn 1 0 0
f 1117//280 1118//280 1119//280 1120//280
v 0.625000 0.125000 -0.062500
v 0.625000 0.187500 -0.062500
v 0.625000 0.187500 0.062500
v 0.625000 0.125000 0.062500
vn 1 0 0
f 1121//281 1122//281 1123//281 1124//281
v 0.750000 0.125000 -0.687500
v 0.750000 0.250000 -0.687500
v 0.750000 0.250000 -0.562500
v 0.750000 0.125000 -0.562500
vn 1 0 0
f 1125//282 1126//282 1127//282 1128//282
v 0.875000 0.125000 -0.062500
v 0.875000 0.187500 -0.062500
v 0.875000 0.187500 0.062500
v 0.875000 0.125000 0.062500
vn 1 0 0
f 1129//283 1130//283 1131//283 1132//283
v 1.250000 0.125000 -0.687500
v 1.250000 0.187500 -0.687500
v 1.250000 0.187500 -0.562500
v 1.250000 0.125000 -0.562500
vn 1 0 0
f 1133//284 1134//284 1135//284 1136//284
g palette_5
usemtl palette_5
v -1.375000 0.187500 -0.562500
v -1.375000 0.250000 -0.562500
v -1.375000 0.250000 -0.625000
v -1.375000 0.187500 -0.625000
vn -1 0 0
f 1137//285 1138//285 1139//285 1140//285
v -1.000000 0.187500 0.062500
v -1.000000 0.250000 0.062500
v -1.000000 0.250000 0.000000
v -1.000000 0.187500 0.000000
vn -1 0 0
f 1141//286 1142//286 1143//286 1144//286
v -0.875000 0.187500 -0.562500
v -0.875000 0.250000 -0.562500
v -0.875000 0.250000 -0.625000
v -0.875000 0.187500 -0.625000
vn -1 0 0
f 1145//287 1146//287 1147//287 1148//287
v -0.625000 0.250000 -0.562500
v -0.625000 0.312500 -0.562500
v -0.625000 0.312500 -0.625000
v -0.625000 0.250000 -0.625000
vn -1 0 0
f 1149//288 1150//288 1151//288 1152//288
v -0.375000 0.187500 -0.562500
v -0.375000 0.250000 -0.562500
v -0.375000 0.250000 -0.625000
v -0.375000 0.187500 -0.625000
vn -1 0 0
f 1153//289 1154//289 1155//289 1156//289
v -0.125000 0.250000 0.687500
v -0.125000 0.312500 0.687500
v -0.125000 0.312500 0.625000
v -0.125000 0.250000 0.625000
vn -1 0 0
f 1157//290 1158//290 1159//290 1160//290
v 0.125000 0.187500 -0.562500
v 0.125000 0.250000 -0.562500
v 0.125000 0.250000 -0.625000
v 0.125000 0.187500 -0.625000
vn -1 0 0
f 1161//291 1162//291 1163//291 1164//291
v 0.625000 0.250000 -0.562500
v 0.625000 0.312500 -0.562500
v 0.625000 0.312500 -0.625000
v 0.625000 0.250000 -0.625000
vn -1 0 0
f 1165//292 1166//292 1167//292 1168//292
v 0.750000 0.187500 0.062500
v 0.750000 0.250000 0.062500
v 0.750000 0.250000 0.000000
v 0.750000 0.187500 0.000000
vn -1 0 0
f 1169//293 1170//293 1171//293 1172//293
v 0.875000 0.187500 0.687500
v 0.875000 0.250000 0.687500
v 0.875000 0.250000 0.625000
v 0.875000 0.187500 0.625000
vn -1 0 0
f 1173//294 1174//294 1175//294 1176//294
v 1.000000 0.250000 0.062500
v 1.000000 0.312500 0.062500
v 1.000000 0.312500 0.000000
v 1.000000 0.250000 0.000000
vn -1 0 0
f 1177//295 1178//295 1179//295 1180//295
v 1.125000 0.250000 0.687500
v 1.125000 0.312500 0.687500
v 1.125000 0.312500 0.625000
v 1.125000 0.250000 0.625000
vn -1 0 0
f 1181//296 1182//296 1183//296 1184//296
v -1.375000 0.187500 -0.625000
v -1.375000 0.250000 -0.625000
v -1.312500 0.250000 -0.625000
v -1.312500 0.187500 -0.625000
vn 0 0 -1
f 1185//297 1186//297 1187//297 1188//297
v -0.875000 0.187500 -0.625000
v -0.875000 0.250000 -0.625000
v -0.812500 0.250000 -0.625000
v -0.812500 0.187500 -0.625000
vn 0 0 -1
f 1189//298 1190//298 1191//298 1192//298
v -0.625000 0.250000 -0.625000
v -0.625000 0.312500 -0.625000
v -0.562500 0.312500 -0.625000
v -0.562500 0.250000 -0.625000
vn 0 0 -1
f 1193//299 1194//299 1195//299 1196//299
v -0.375000 0.187500 -0.625000
v -0.375000 0.250000 -0.625000
v -0.312500 0.250000 -0.625000
v -0.312500 0.187500 -0.625000
vn 0 0 -1
f 1197//300 1198//300 1199//300 1200//300
v 0.125000 0.187500 -0.625000
v 0.125000 0.250000 -0.625000
v 0.187500 0.250000 -0.625000
v 0.187500 0.187500 -0.625000
vn 0 0 -1
f 1201//301 1202//301 1203//301 1204//301
v 0.625000 0.250000 -0.625000
v 0.625000 0.312500 -0.625000
v 0.687500 0.312500 -0.625000
v 0.687500 0.250000 -0.625000
vn 0 0 -1
f 1205//302 1206//302 1207//302 1208//302
v -1.000000 0.187500 0.000000
v -1.000000 0.250000 0.000000
v -0.937500 0.250000 0.000000
v -0.937500 0.187500 0.000000
vn 0 0 -1
f 1209//303 1210//303 1211//303 1212//303
v 0.750000 0.187500 0.000000
v 0.750000 0.250000 0.000000
v 0.812500 0.250000 0.000000
v 0.812500 0.187500 0.000000
vn 0 0 -1
f 1213//304 1214//304 1215//304 1216//304
v 1.000000 0.250000 0.000000
v 1.000000 0.312500 0.000000
v 1.062500 0.312500 0.000000
v 1.062500 0.250000 0.000000
vn 0 0 -1
f 1217//305 1218//305 1219//305 1220//305
v -0.125000 0.250000 0.625000
v -0.125000 0.312500 0.625000
v -0.062500 0.312500 0.625000
v -0.062500 0.250000 0.625000
vn 0 0 -1
f 1221//306 1222//306 1223//306 1224//306
v 0.875000 0.187500 0.625000
v 0.875000 0.250000 0.625000
v 0.937500 0.250000 0.625000
v 0.937500 0.187500 0.625000
vn 0 0 -1
f 1225//307 1226//307 1227//307 1228//307
v 1.125000 0.250000 0.625000
v 1.125000 0.312500 0.625000
v 1.187500 0.312500 0.625000
v 1.187500 0.250000 0.625000
vn 0 0 -1
f 1229//308 1230//308 1231//308 1232//308
v -1.312500 0.187500 -0.562500
v -1.312500 0.250000 -0.562500
v -1.375000 0.250000 -0.562500
v -1.375000 0.187500 -0.562500
vn 0 0 1
f 1233//309 1234//309 1235//309 1236//309
v -0.812500 0.187500 -0.562500
v -0.812500 0.250000 -0.562500
v -0.875000 0.250000 -0.562500
v -0.875000 0.187500 -0.562500
vn 0 0 1
f 1237//310 1238//310 1239//310 1240//310
v -0.562500 0.250000 -0.562500
v -0.562500 0.312500 -0.562500
v -0.625000 0.312500 -0.562500
v -0.625000 0.250000 -0.562500
vn 0 0 1
f 1241//311 1242//311 1243//311 1244//311
v -0.312500 0.187500 -0.562500
v -0.312500 0.250000 -0.562500
v -0.375000 0.250000 -0.562500
v -0.375000 0.187500 -0.562500
vn 0 0 1
f 1245//312 1246//312 1247//312 1248//312
v 0.187500 0.187500 -0.562500
v 0.187500 0.250000 -0.562500
v 0.125000 0.250000 -0.562500
v 0.125000 0.187500 -0.562500
vn 0 0 1
f 1249//313 1250//313 1251//313 1252//313
v 0.687500 0.250000 -0.562500
v 0.687500 0.312500 -0.562500
v 0.625000 0.312500 -0.562500
v 0.625000 0.250000 -0.562500
vn 0 0 1
f 1253//314 1254//314 1255//314 1256//314
v -0.937500 0.187500 0.062500
v -0.937500 0.250000 0.062500
v -1.000000 0.250000 0.062500
v -1.000000 0.187500 0.062500
vn 0 0 1
f 1257//315 1258//315 1259//315 1260//315
v 0.812500 0.187500 0.062500
v 0.812500 0.250000 0.062500
v 0.750000 0.250000 0.062500
v 0.750000 0.187500 0.062500
vn 0 0 1
f 1261//316 1262//316 1263//316 1264//316
v 1.062500 0.250000 0.062500
v 1.062500 0.312500 0.062500
v 1.000000 0.312500 0.062500
v 1.000000 0.250000 0.062500
vn 0 0 1
f 1265//317 1266//317 1267//317 1268//317
v -0.062500 0.250000 0.687500
v -0.062500 0.312500 0.687500
v -0.125000 0.312500 0.687500
v -0.125000 0.250000 0.687500
vn 0 0 1
f 1269//318 1270//318 1271//318 1272//318
v 0.937500 0.187500 0.687500
v 0.937500 0.250000 0.687500
v 0.875000 0.250000 0.687500
v 0.875000 0.187500 0.687500
vn 0 0 1
f 1273//319 1274//319 1275//319 1276//319
v 1.187500 0.250000 0.687500
v 1.187500 0.312500 0.687500
v 1.125000 0.312500 0.687500
v 1.125000 0.250000 0.687500
vn 0 0 1
f 1277//320 1278//320 1279//320 1280//320
v -1.375000 0.250000 -0.562500
v -1.312500 0.250000 -0.562500
v -1.312500 0.250000 -0.625000
v -1.375000 0.250000 -0.625000
vn 0 1 0
f 1281//321 1282//321 1283//321 1284//321
v -0.875000 0.250000 -0.562500
v -0.812500 0.250000 -0.562500
v -0.812500 0.250000 -0.625000
v -0.875000 0.250000 -0.625000
vn 0 1 0
f 1285//322 1286//322 1287//322 1288//322
v -0.375000 0.250000 -0.562500
v -0.312500 0.250000 -0.562500
v -0.312500 0.250000 -0.625000
v -0.375000 0.250000 -0.625000
vn 0 1 0
f 1289//323 1290//323 1291//323 1292//323
v 0.125000 0.250000 -0.562500
v 0.187500 0.250000 -0.562500
v 0.187500 0.250000 -0.625000
v 0.125000 0.250000 -0.625000
vn 0 1 0
f 1293//324 1294//324 1295//324 1296//324
v -1.000000 0.250000 0.062500
v -0.937500 0.250000 0.062500
v -0.937500 0.250000 0.000000
v -1.000000 0.250000 0.000000
vn 0 1 0
f 1297//325 1298//325 1299//325 1300//325
v 0.750000 0.250000 0.062500
v 0.812500 0.250000 0.062500
v 0.812500 0.250000 0.000000
v 0.750000 0.250000 0.000000
vn 0 1 0
f 1301//326 1302//326 1303//326 1304//326
v 0.875000 0.250000 0.687500
v 0.937500 0.250000 0.687500
v 0.937500 0.250000 0.625000
v 0.875000 0.250000 0.625000
vn 0 1 0
f 1305//327 1306//327 1307//327 1308//327
v -0.625000 0.312500 -0.562500
v -0.562500 0.312500 -0.562500
v -0.562500 0.312500 -0.625000
v -0.625000 0.312500 -0.625000
vn 0 1 0
f 1309//328 1310//328 1311//328 1312//328
v 0.625000 0.312500 -0.562500
v 0.687500 0.312500 -0.562500
v 0.687500 0.312500 -0.625000
v 0.625000 0.312500 -0.625000
vn 0 1 0
f 1313//329 1314//329 1315//329 1316//329
v 1.000000 0.312500 0.062500
v 1.062500 0.312500 0.062500
v 1.062500 0.312500 0.000000
v 1.000000 0.312500 0.000000
vn 0 1 0
f 1317//330 1318//330 1319//330 1320//330
v -0.125000 0.312500 0.687500
v -0.062500 0.312500 0.687500
v -0.062500 0.312500 0.625000
v -0.125000 0.312500 0.625000
vn 0 1 0
f 1321//331 1322//331 1323//331 1324//331
v 1.125000 0.312500 0.687500
v 1.187500 0.312500 0.687500
v 1.187500 0.312500 0.625000
v 1.125000 0.312500 0.625000
vn 0 1 0
f 1325//332 1326//332 1327//332 1328//332
v -1.312500 0.187500 -0.625000
v -1.312500 0.250000 -0.625000
v -1.312500 0.250000 -0.562500
v -1.312500 0.187500 -0.562500
vn 1 0 0
f 1329//333 1330//333 1331//333 1332//333
v -0.937500 0.187500 0.000000
v -0.937500 0.250000 0.000000
v -0.937500 0.250000 0.062500
v -0.937500 0.187500 0.062500
vn 1 0 0
f 1333//334 1334//334 1335//334 1336//334
v -0.812500 0.187500 -0.625000
v -0.812500 0.250000 -0.625000
v -0.812500 0.250000 -0.562500
v -0.812500 0.187500 -0.562500
vn 1 0 0
f 1337//335 1338//335 1339//335 1340//335
v -0.562500 0.250000 -0.625000
v -0.562500 0.312500 -0.625000
v -0.562500 0.312500 -0.562500
v -0.562500 0.250000 -0.562500
vn 1 0 0
f 1341//336 1342//336 1343//336 1344//336
v -0.312500 0.187500 -0.625000
v -0.312500 0.250000 -0.625000
v -0.312500 0.250000 -0.562500
v -0.312500 0.187500 -0.562500
vn 1 0 0
f 1345//337 1346//337 1347//337 1348//337
v -0.062500 0.250000 0.625000
v -0.062500 0.312500 0.625000
v -0.062500 0.312500 0.687500
v -0.062500 0.250000 0.687500
vn 1 0 0
f 1349//338 1350//338 1351//338 1352//338
v 0.187500 0.187500 -0.625000
v 0.187500 0.250000 -0.625000
v 0.187500 0.250000 -0.562500
v 0.187500 0.187500 -0.562500
vn 1 0 0
f 1353//339 1354//339 1355//339 1356//339
v 0.687500 0.250000 -0.625000
v 0.687500 0.312500 -0.625000
v 0.687500 0.312500 -0.562500
v 0.687500 0.250000 -0.562500
vn 1 0 0
f 1357//340 1358//340 1359//340 1360//340
v 0.812500 0.187500 0.000000
v 0.812500 0.250000 0.000000
v 0.812500 0.250000 0.062500
v 0.812500 0.187500 0.062500
vn 1 0 0
f 1361//341 1362//341 1363//341 1364//341
v 0.937500 0.187500 0.625000
v 0.937500 0.250000 0.625000
v 0.937500 0.250000 0.687500
v 0.937500 0.187500 0.687500
vn 1 0 0
f 1365//342 1366//342 1367//342 1368//342
v 1.062500 0.250000 0.000000
v 1.062500 0.312500 0.000000
v 1.062500 0.312500 0.062500
v 1.062500 0.250000 0.062500
vn 1 0 0
f 1369//343 1370//343 1371//343 1372//343
v 1.187500 0.250000 0.625000
v 1.187500 0.312500 0.625000
v 1.187500 0.312500 0.687500
v 1.187500 0.250000 0.687500
vn 1 0 0
f 1373//344 1374//344 1375//344 1376//344
